<?xml version="1.0" encoding="UTF-8" standalone="no"?>
<!-- Created with Inkscape (http://www.inkscape.org/) -->

<svg
   xmlns:dc="http://purl.org/dc/elements/1.1/"
   xmlns:cc="http://creativecommons.org/ns#"
   xmlns:rdf="http://www.w3.org/1999/02/22-rdf-syntax-ns#"
   xmlns:svg="http://www.w3.org/2000/svg"
   xmlns="http://www.w3.org/2000/svg"
   xmlns:sodipodi="http://sodipodi.sourceforge.net/DTD/sodipodi-0.dtd"
   xmlns:inkscape="http://www.inkscape.org/namespaces/inkscape"
   width="512"
   height="512"
   id="svg3984"
   version="1.1"
   inkscape:version="0.48.4 r9939"
   sodipodi:docname="bike.svg">
  <defs
     id="defs3986" />
  <sodipodi:namedview
     id="base"
     pagecolor="#ffffff"
     bordercolor="#666666"
     borderopacity="1.0"
     inkscape:pageopacity="0.0"
     inkscape:pageshadow="2"
     inkscape:zoom="1.4"
     inkscape:cx="-7.0730579"
     inkscape:cy="204.04019"
     inkscape:document-units="px"
     inkscape:current-layer="layer1"
     showgrid="false"
     inkscape:window-width="1858"
     inkscape:window-height="1057"
     inkscape:window-x="-8"
     inkscape:window-y="-8"
     inkscape:window-maximized="1" />
  <metadata
     id="metadata3989">
    <rdf:RDF>
      <cc:Work
         rdf:about="">
        <dc:format>image/svg+xml</dc:format>
        <dc:type
           rdf:resource="http://purl.org/dc/dcmitype/StillImage" />
        <dc:title></dc:title>
      </cc:Work>
    </rdf:RDF>
  </metadata>
  <g
     inkscape:label="Layer 1"
     inkscape:groupmode="layer"
     id="layer1"
     transform="translate(0,-540.36218)">
    <g
       id="g2987"
       style="fill:#ffffff">
      <g
         inkscape:export-ydpi="90"
         inkscape:export-xdpi="90"
         transform="matrix(1.999998,0,0,1.999998,-146.11934,508.18047)"
         id="g4005"
         style="fill:#ffffff">
        <path
           id="path3073"
           style="fill:#ffffff;fill-opacity:1;fill-rule:nonzero;stroke:none"
           d="m 305.90751,204.78836 -15.14557,-21.06784 20.07142,16.42196 c -0.45481,0.50126 -0.92429,0.9903 -1.40477,1.47201 -1.12601,1.12723 -2.30215,2.18356 -3.52108,3.17387 z m -33.02608,9.73922 4.19718,-25.65258 2.5858,25.85798 c -0.66999,0.0269 -1.34119,0.0453 -2.01729,0.0453 -1.60283,0 -3.19343,-0.0844 -4.76569,-0.25063 z m -30.24222,-16.5002 21.1204,-15.18224 -16.47086,20.13132 c -0.4817,-0.44502 -0.95852,-0.89616 -1.4231,-1.36197 -1.14558,-1.14558 -2.22024,-2.34495 -3.22644,-3.58711 z m 6.82821,-63.21206 15.13456,21.05561 -20.07141,-16.4244 c 0.43524,-0.47193 0.8766,-0.93896 1.33508,-1.39499 1.15168,-1.15169 2.3535,-2.2288 3.60177,-3.23622 z m 32.98696,-9.67198 -4.18007,25.54377 -2.57357,-25.75528 c 0.64676,-0.0294 1.29596,-0.0452 1.94638,-0.0452 1.61628,0 3.22033,0.088 4.80726,0.25675 z m 30.15908,16.44518 -21.00792,15.09911 16.37916,-20.01518 c 0.49026,0.44747 0.97319,0.90717 1.44389,1.37909 1.13091,1.13091 2.19212,2.31194 3.18487,3.53698 z m -18.19105,33.02975 -7.29648,-3.29368 8.12418,-0.81181 27.0549,4.42581 c -0.15772,1.39254 -0.37778,2.77163 -0.65898,4.13361 l -27.22362,-4.45393 z m 1.41332,0.6382 25.72594,4.20818 c -0.48171,2.2288 -1.13335,4.4087 -1.94882,6.52502 l -23.77712,-10.7332 z m -3.11274,3.625 -6.31595,-5.17037 7.90044,1.29351 25.15865,11.35795 c -0.51227,1.29595 -1.08322,2.5699 -1.71775,3.81451 l -25.02539,-11.2956 z m 1.2006,0.98297 23.6414,10.66963 c -1.03799,1.9965 -2.23247,3.91843 -3.57243,5.75111 l -20.06897,-16.42074 z m -8.78438,-3.96611 7.37227,3.32792 21.24511,17.38536 c -0.82892,1.11379 -1.7153,2.19212 -2.65181,3.23622 l -21.24634,-17.38659 -4.71923,-6.56291 z m -2.11877,0.96708 -0.87782,-2.31805 2.2667,1.02087 4.24608,5.91249 -5.63496,-4.61531 z m 3.13964,8.31245 -2.85599,-7.56055 6.25482,5.12024 16.03316,22.30144 c -1.09789,0.87538 -2.22879,1.69085 -3.39026,2.45498 l -16.04173,-22.31611 z m 0.55017,1.45 15.15534,21.08618 c -1.91337,1.22504 -3.90376,2.30215 -5.96873,3.21788 l -9.18661,-24.30406 z m -4.82193,0.21518 -0.80325,-8.04104 4.72046,6.56536 9.72333,25.72472 c -1.28129,0.55628 -2.5858,1.05143 -3.91476,1.48301 l -9.72578,-25.73205 z m 0.15404,1.54048 9.19028,24.31261 c -2.14933,0.67976 -4.35734,1.1957 -6.60692,1.54536 l -2.58336,-25.85797 z m -3.40616,-9.01178 2.85722,7.56422 2.7374,27.36544 c -1.37543,0.20051 -2.76552,0.33988 -4.1654,0.41202 l -2.73495,-27.36667 1.30573,-7.97501 z m -2.18601,-0.8167 1.0221,-2.26181 0.87905,2.32661 -1.1737,7.18277 -0.72745,-7.24757 z m -3.65435,8.09728 3.32547,-7.36739 0.80448,8.04715 -4.44171,27.15271 c -1.39376,-0.15894 -2.77163,-0.38267 -4.13238,-0.66632 l 4.44414,-27.16615 z m -0.63819,1.4121 -4.19963,25.67092 c -2.22024,-0.4866 -4.39402,-1.1358 -6.50423,-1.95005 l 10.70386,-23.72087 z m -3.55899,-3.25823 5.11536,-6.2536 -1.30574,7.98236 -11.32861,25.10363 c -1.2984,-0.51594 -2.5699,-1.08934 -3.81451,-1.72264 l 11.3335,-25.10975 z m -0.98297,1.19815 -10.70753,23.72698 c -2.00139,-1.04409 -3.92821,-2.24224 -5.767,-3.59077 l 16.47453,-20.13621 z m 3.96489,-8.78071 -3.32547,7.37227 -17.43671,21.30624 c -1.11257,-0.83014 -2.1909,-1.71653 -3.23378,-2.65671 l 17.43427,-21.30257 6.56169,-4.71923 z m -0.9683,-2.11999 2.32172,-0.8766 -1.02332,2.2667 -5.91127,4.24608 4.61287,-5.63618 z m -8.30878,3.14086 7.55933,-2.85966 -5.12025,6.25849 -22.35523,16.06984 c -0.86927,-1.09911 -1.68474,-2.23002 -2.44642,-3.39393 L 262.3035,178.2445 z m -1.44878,0.5465 -21.13141,15.1908 c -1.22505,-1.91581 -2.29971,-3.91721 -3.21422,-5.98707 l 24.34563,-9.20373 z m -0.21885,-4.81826 8.04226,-0.80447 -6.56658,4.71923 -25.76017,9.73923 c -0.55262,-1.28129 -1.04533,-2.58702 -1.47568,-3.91599 l 25.76017,-9.738 z m -1.5417,0.15404 -24.33951,9.20006 c -0.67365,-2.15299 -1.18592,-4.36223 -1.53191,-6.61426 l 25.87142,-2.5858 z m 1.03921,-4.71067 7.97502,1.30451 -7.56422,2.85722 -27.38012,2.7374 c -0.19806,-1.3742 -0.33255,-2.76552 -0.40346,-4.16418 l 27.37278,-2.73495 z m 0.53917,-4.5603 7.43829,3.35726 -7.96523,0.79591 -27.13804,-4.43926 c 0.16016,-1.39376 0.38634,-2.76918 0.67365,-4.13116 l 26.99133,4.41725 z m -1.41577,-0.63819 -25.49242,-4.17274 c 0.48659,-2.2019 1.13824,-4.36101 1.95004,-6.4541 l 23.54238,10.62684 z m 3.39393,-3.50275 6.19247,5.07256 -8.05571,-1.31918 -24.92513,-11.25158 c 0.51471,-1.29596 1.09056,-2.56746 1.72753,-3.81085 l 25.06084,11.30905 z m -1.20059,-0.9793 -23.67564,-10.68797 c 1.0441,-1.99528 2.24103,-3.91843 3.58711,-5.75233 l 20.08853,16.4403 z m 8.77827,3.96366 -7.36617,-3.32669 -21.261,-17.39759 c 0.83137,-1.11379 1.71653,-2.1909 2.65793,-3.23255 l 21.24878,17.38781 4.72046,6.56902 z m 2.11142,-0.9793 0.88028,2.32783 -2.25937,-1.01965 -4.2522,-5.91738 5.63129,4.6092 z m -3.14085,-8.31368 2.85843,7.56545 -6.25237,-5.11902 -16.02339,-22.28921 c 1.09912,-0.8705 2.23125,-1.68597 3.39638,-2.44643 l 16.02095,22.28921 z m -0.54895,-1.45 -15.13578,-21.05805 c 1.91092,-1.22138 3.90376,-2.28993 5.96506,-3.19954 l 9.17072,24.25759 z m 4.81582,-0.22618 0.80691,8.04593 -4.71923,-6.56169 -9.70499,-25.67581 c 1.28128,-0.55262 2.58702,-1.04533 3.9172,-1.47568 l 9.70011,25.66725 z m -0.15405,-1.54414 -9.16338,-24.24293 c 2.14322,-0.67243 4.34389,-1.18592 6.58859,-1.52947 l 2.57479,25.7724 z m 3.40739,9.01178 -2.85722,-7.55933 -2.72884,-27.28476 c 1.3742,-0.19928 2.7643,-0.33377 4.1654,-0.40468 l 2.72517,27.26886 -1.30451,7.97991 z m 2.18234,0.80569 -1.02087,2.26426 -0.87905,-2.31928 1.17614,-7.1901 0.72378,7.24512 z m 3.65679,-8.10461 -3.32669,7.37227 -0.80325,-8.04103 4.42581,-27.0439 c 1.39254,0.16016 2.77041,0.38267 4.12994,0.66998 l -4.42581,27.04268 z m 0.6382,-1.41333 4.18129,-25.54621 c 2.20924,0.48415 4.37079,1.13579 6.46999,1.94393 l -10.65128,23.60228 z m 3.56632,3.24601 -5.12147,6.25971 1.30574,-7.97624 11.27603,-24.98382 c 1.29718,0.51716 2.56868,1.09056 3.81574,1.72386 l -11.27604,24.97649 z m 0.98297,-1.19815 10.64884,-23.59373 c 1.98917,1.03921 3.90743,2.23125 5.73644,3.56999 l -16.38528,20.02374 z m -3.96244,8.77826 3.32547,-7.36616 17.34501,-21.19987 c 1.11379,0.83014 2.19213,1.71653 3.23623,2.65793 l -17.34013,21.18887 -6.56658,4.71923 z m 0.97441,2.11388 -2.32539,0.8766 1.02087,-2.25936 5.91372,-4.2522 -4.6092,5.63496 z m 8.31367,-3.14331 -7.56422,2.85966 5.1178,-6.25359 22.24031,-15.98549 c 0.87293,1.09545 1.69208,2.22758 2.45009,3.39149 l -22.24398,15.98793 z m 1.45001,-0.54772 21.01526,-15.10522 c 1.2226,1.90604 2.29237,3.89031 3.20932,5.94795 l -24.22458,9.15727 z m 0.2274,4.81582 -8.04593,0.80569 6.56292,-4.71801 25.63668,-9.69155 c 0.55629,1.27884 1.05266,2.58458 1.48546,3.91232 l -25.63913,9.69155 z m 1.54048,-0.15283 24.21847,-9.15727 c 0.67732,2.14444 1.19203,4.34268 1.5417,6.5837 l -25.76017,2.57357 z m -9.00812,3.40617 7.55934,-2.85844 27.2713,-2.7264 c 0.20295,1.37298 0.33866,2.7643 0.41446,4.1654 l -27.26397,2.72517 -7.98113,-1.30573 z m -3.12374,1.1798 2.37429,-0.89616 7.19011,1.17492 -7.32582,0.73356 -2.23858,-1.01232 z m -0.71277,1.30574 -0.8656,-0.70788 1.04776,-0.39735 1.97083,0.89005 -2.15299,0.21518 z m 0.44135,0.36067 2.44398,-0.24575 6.56414,2.96359 -7.1082,-1.1627 -1.89992,-1.55514 z m -1.02698,1.07711 -0.65287,-0.91084 1.11379,-0.11126 1.67374,1.37054 -2.13466,-0.34844 z m 0.3301,0.46092 2.42808,0.39612 5.69487,4.66055 -6.64116,-2.99782 -1.48179,-2.05885 z m -1.66273,-0.27386 1.104,0.18094 1.31063,1.82412 -1.99895,-0.90228 -0.41568,-1.10278 z m -0.9842,0.4707 -0.0636,-0.64309 0.59051,0.0978 0.35578,0.94262 -0.88272,-0.39734 z m 0.15894,1.58571 -0.11125,-1.12479 1.03554,0.46703 0.77513,2.04785 -1.69942,-1.39009 z m 0.0562,0.56362 1.9256,1.57348 2.57357,6.8111 -4.2522,-5.91493 -0.24697,-2.46965 z m -1.50013,0.0391 0.18217,-1.11868 0.87905,0.72011 0.21884,2.17623 -1.28006,-1.77766 z m -0.0929,0.5575 1.45245,2.01852 0.72378,7.24268 -2.57724,-6.81233 0.40101,-2.44887 z m -0.99397,-1.38398 0.66387,0.92306 -0.35211,2.15667 -0.77757,-2.04908 0.46581,-1.03065 z m -1.00864,-0.40712 0.38145,-0.46459 0.357,0.49515 -0.39613,0.8766 -0.34232,-0.90716 z m -1.00742,1.23482 0.71644,-0.87538 0.40101,1.06611 -0.90105,1.99161 -0.2164,-2.18234 z m -0.36067,0.43769 0.24941,2.47454 -2.99537,6.63627 1.17492,-7.1901 1.57104,-1.92071 z m -1.08689,-1.03676 0.91817,-0.65776 0.1137,1.1309 -1.3852,1.69208 0.35333,-2.16522 z m -0.46092,0.33254 -0.40102,2.45498 -4.61042,5.63252 2.99904,-6.63871 2.0124,-1.44879 z m 0.27508,-1.68107 -0.18339,1.12235 -1.77521,1.27639 0.90105,-1.99895 1.05755,-0.39979 z m -0.42546,-1.00009 0.60029,-0.0611 -0.099,0.60275 -0.89983,0.33988 0.39857,-0.8815 z m -1.58571,0.15894 1.12479,-0.11248 -0.46704,1.03554 -2.04785,0.77513 1.3901,-1.69819 z m -0.56362,0.0562 -1.57593,1.92437 -6.80621,2.5748 5.91371,-4.25343 2.46843,-0.24574 z m -0.0378,-1.50135 1.11501,0.18339 -0.71889,0.88027 -2.17623,0.21762 1.78011,-1.28128 z m -0.55873,-0.0917 -2.01851,1.45123 -7.24391,0.725 6.81355,-2.57724 2.44887,0.40101 z m 0.30076,-1.439 1.0441,0.47193 -0.88394,0.63453 -2.15911,-0.35211 1.99895,-0.75435 z m -0.51961,-0.23351 -2.27036,0.85948 -7.18278,-1.17614 7.16566,-0.71522 2.28748,1.03188 z m 0.71767,-1.33141 0.88883,0.72622 -1.07467,0.40468 -2.02095,-0.91206 2.20679,-0.21884 z m -0.43891,-0.36067 -2.499,0.25063 -6.70962,-3.0296 7.26468,1.18959 1.94394,1.58938 z m 1.03554,-1.10278 0.66876,0.93284 -1.14069,0.1137 -1.71653,-1.40599 2.18846,0.35945 z m -0.3301,-0.46092 -2.47944,-0.40591 -5.57505,-4.56152 6.63749,2.99415 1.417,1.97328 z m 1.69085,0.27753 -1.1309,-0.18584 -1.24583,-1.73365 1.99161,0.89984 0.38512,1.01965 z m 1.00864,-0.39124 0.0562,0.56484 -0.60763,-0.10025 -0.32521,-0.86071 0.8766,0.39612 z m -0.15893,-1.59304 0.11248,1.1309 -1.03066,-0.46336 -0.77635,-2.05397 1.69453,1.38643 z m -0.0562,-0.56362 -1.92071,-1.57104 -2.57601,-6.81477 4.24731,5.91004 0.24941,2.47577 z m 1.49646,-0.0465 -0.18339,1.12235 -0.87416,-0.71523 -0.21762,-2.18356 1.27517,1.77644 z m 0.0917,-0.56117 -1.44879,-2.01485 -0.72377,-7.24879 2.57357,6.80988 -0.40101,2.45376 z m 0.9903,1.38031 -0.65898,-0.91939 0.35333,-2.16278 0.77513,2.04418 -0.46948,1.03799 z m 1.00865,0.39246 -0.38635,0.47314 -0.35088,-0.49148 0.39612,-0.8815 0.34111,0.89984 z m 1.01353,-1.23972 -0.72011,0.88149 -0.39857,-1.05754 0.90228,-1.99895 0.2164,2.175 z m 0.35944,-0.43769 -0.24696,-2.46965 2.99781,-6.63872 -1.17614,7.18522 -1.57471,1.92315 z m 1.09179,1.02576 -0.92307,0.66265 -0.11125,-1.12357 1.38765,-1.69819 -0.35333,2.15911 z m 0.46214,-0.33255 0.39857,-2.44886 4.61531,-5.63741 -2.99537,6.63505 -2.01851,1.45122 z m -0.27509,1.67619 0.18217,-1.11746 1.78133,-1.28006 -0.89983,1.9965 -1.06367,0.40102 z m 0.43525,0.9903 -0.60763,0.0611 0.0966,-0.5954 0.90595,-0.34233 -0.3949,0.8766 z m 1.59182,-0.16016 -1.13212,0.11615 0.46703,-1.0331 2.0503,-0.7739 -1.38521,1.69085 z m 0.56362,-0.0551 1.57226,-1.91826 6.81355,-2.57847 -5.91127,4.24976 -2.47454,0.24697 z m 0.0476,1.49768 -1.12234,-0.18584 0.71644,-0.87049 2.18234,-0.21884 -1.77644,1.27517 z m 0.56118,0.0917 2.0124,-1.44878 7.24879,-0.72256 -6.80744,2.57235 -2.45375,-0.40101 z m -1.417,1.01842 0.95608,-0.6871 2.16278,0.35333 -2.09921,0.79347 -1.01965,-0.4597 z m -0.86071,0.61864 0.48293,-0.34844 0.8656,0.39001 -0.88761,0.33499 -0.46092,-0.37656 z m -0.41446,0.71033 -0.19561,-0.27387 0.27019,-0.19439 0.368,0.29832 -0.44258,0.16994 z m 0.24208,0.33621 0.5575,-0.21151 0.73723,0.60397 -0.94751,0.0929 -0.34722,-0.48537 z m -0.58318,0.57829 -0.11859,-0.31543 0.31298,-0.11737 0.27631,0.38512 -0.4707,0.0476 z m 0.14671,0.38634 0.59296,-0.0574 0.55506,0.77146 -0.93773,-0.15405 -0.21029,-0.55995 z m -0.74701,0.0771 0.33377,-0.0342 0.1675,0.44258 -0.46826,-0.0758 -0.033,-0.33254 z m -0.60029,0.2274 0.0269,-0.17116 0.17483,-0.016 0.022,0.22496 -0.22373,-0.0378 z m -0.12471,0.76779 0.0599,-0.36922 0.3301,0.0538 0.0525,0.51594 -0.44258,-0.20051 z m -0.0673,0.41079 0.55506,0.25064 0.0954,0.95729 -0.74945,-0.6113 0.099,-0.59663 z m -0.83259,-0.006 0.13815,-0.30565 0.31421,0.14304 -0.0758,0.47192 -0.37656,-0.30931 z m -0.17117,0.379 0.47193,0.3839 -0.15527,0.94996 -0.56362,-0.78736 0.24696,-0.5465 z m -0.58807,-0.48292 0.26653,0.21884 -0.19562,0.43769 -0.28486,-0.39734 0.21395,-0.25919 z m -0.59296,-0.26898 0.1406,-0.10025 0.14182,0.11615 -0.14549,0.17605 -0.13693,-0.19195 z m -0.60029,0.42914 0.27386,-0.19684 0.20051,0.28242 -0.30321,0.36922 -0.17116,-0.4548 z m -0.33744,0.24329 0.2164,0.56729 -0.60763,0.74579 -0.0965,-0.96219 0.48782,-0.35089 z m -0.58318,-0.59296 0.31421,-0.11981 0.12348,0.32276 -0.38879,0.27876 -0.0489,-0.48171 z m -0.39001,0.14427 0.0636,0.60885 -0.78002,0.56118 0.15527,-0.95608 0.56117,-0.21395 z m -0.0734,-0.75434 0.0354,0.34232 -0.44747,0.16994 0.0782,-0.48048 0.33377,-0.0318 z m -0.23107,-0.6113 0.17361,0.0282 0.0171,0.18217 -0.22618,0.0257 0.0354,-0.23597 z m -0.72622,-0.12104 0.33255,0.055 -0.0562,0.34232 -0.47559,0.0476 0.19928,-0.44503 z m -0.40957,-0.0649 -0.25063,0.55506 -0.95608,0.0954 0.61252,-0.74823 0.59419,0.0978 z m -0.0208,-0.8008 0.31909,0.14304 -0.12715,0.27753 -0.47192,-0.0771 0.27998,-0.34355 z m -0.37779,-0.17116 -0.35822,0.44013 -0.94996,-0.15649 0.74701,-0.5355 0.56117,0.25186 z m 0.21518,-0.80692 0.26775,0.2164 -0.22007,0.27019 -0.44747,-0.20295 0.39979,-0.28364 z m -0.32154,-0.2653 -0.50005,0.35944 -0.8925,-0.40224 0.91573,-0.34477 0.47682,0.38757 z m 0.41446,-0.72745 0.20295,0.28364 -0.2812,0.20173 -0.38023,-0.31054 0.45848,-0.17483 z m -0.24208,-0.33622 -0.5734,0.21763 -0.75801,-0.61986 0.97319,-0.0965 0.35822,0.49882 z m 0.59174,-0.59418 0.12226,0.32521 -0.32399,0.12348 -0.28609,-0.39979 0.48782,-0.0489 z m -0.14671,-0.38634 -0.6113,0.06 -0.5734,-0.79469 0.96463,0.15649 0.22007,0.57829 z m 0.75801,-0.0771 -0.346,0.0354 -0.1736,-0.46092 0.48537,0.0782 0.0342,0.34722 z m 0.6113,-0.24086 -0.0293,0.18217 -0.18217,0.0184 -0.0257,-0.23963 0.23718,0.0391 z m 0.1137,-0.69443 -0.0489,0.29953 -0.34111,-0.0562 -0.044,-0.44136 0.43402,0.19806 z m 0.0685,-0.4108 -0.54895,-0.24941 -0.0978,-0.96096 0.74334,0.60886 -0.0965,0.60151 z m 0.82647,-0.006 -0.14304,0.31543 -0.30565,-0.13938 0.0795,-0.47926 0.36922,0.30321 z m 0.16995,-0.37779 -0.46581,-0.38267 0.15649,-0.95363 0.55995,0.77757 -0.25063,0.55873 z m 0.58318,0.47437 -0.26042,-0.21273 0.19929,-0.44258 0.27875,0.38878 -0.21762,0.26653 z m 0.59296,0.25552 -0.15038,0.10759 -0.13204,-0.10759 0.15038,-0.18461 0.13204,0.18461 z m 0.60641,-0.43524 -0.27998,0.20051 -0.19562,-0.27142 0.30688,-0.37656 0.16872,0.44747 z m 0.33743,-0.2433 -0.21151,-0.56239 0.61253,-0.74946 0.0941,0.95485 -0.49516,0.357 z m 0.58807,0.58196 -0.32276,0.12226 -0.11737,-0.31421 0.39367,-0.28364 0.0465,0.47559 z m 0.38879,-0.14794 -0.0587,-0.59785 0.7849,-0.56361 -0.15527,0.94629 -0.57095,0.21517 z m 0.0758,0.74701 -0.0342,-0.33377 0.45603,-0.17238 -0.0783,0.47192 -0.34355,0.0342 z m 0.23963,0.60152 -0.18217,-0.0318 -0.0184,-0.17116 0.23718,-0.022 -0.0367,0.22496 z m 0.73723,0.12226 -0.34233,-0.0575 0.0551,-0.33132 0.48292,-0.0489 -0.19561,0.43769 z m 0.41079,0.0672 0.24697,-0.54895 0.96218,-0.099 -0.60763,0.74578 -0.60152,-0.0978 z m -0.022,0.85826 -0.30565,-0.13571 0.1565,-0.34599 0.47803,0.0795 -0.32888,0.40224 z m 0.37779,0.17239 0.40835,-0.50127 0.95485,0.15772 -0.81915,0.58807 -0.54405,-0.24452 z m -0.47437,0.57951 0.21151,-0.26041 0.43158,0.19439 -0.3839,0.27753 -0.25919,-0.21151 z m -0.36434,0.4438 0.11004,-0.13571 0.17605,0.14549 -0.18461,0.13204 -0.10148,-0.14182 z m -0.27753,0.41446 -0.0208,-0.0501 0.0355,-0.0416 0.0391,0.0538 -0.0538,0.0378 z m 0.14672,0.39001 0.14182,-0.10147 0.13082,0.18339 -0.21274,0.0795 -0.0598,-0.16139 z m -0.37779,0.32888 -0.004,-0.0562 0.0428,-0.0318 0.0233,0.0636 -0.0624,0.0245 z m 0.0416,0.41202 0.16505,-0.0636 0.0795,0.21518 -0.22618,0.0233 -0.0184,-0.17483 z m -0.43769,0.16627 0.0501,-0.0208 0.006,0.0672 -0.0672,0.009 0.0111,-0.055 z m -0.56728,0.56118 0.0245,-0.0501 0.0525,-0.005 -0.0111,0.066 -0.066,-0.0111 z m -0.17117,0.37778 0.17239,0.0269 -0.0427,0.26775 -0.21885,-0.0965 0.0892,-0.19806 z m -0.52449,-9.8e-4 0.0611,-0.0746 0.0551,0.009 -0.0452,0.099 -0.0709,-0.033 z m -0.26286,0.32154 0.16994,0.0771 -0.0954,0.20784 -0.18462,-0.15038 0.11004,-0.13449 z m -0.44014,-0.19928 0.0611,0.0282 -0.0416,0.0513 -0.06,-0.0489 0.0403,-0.0305 z m -0.79591,-0.0184 0.0452,-0.0159 0.0525,0.0427 -0.055,0.0378 -0.0427,-0.0648 z m -0.39001,0.14916 0.11003,0.1516 -0.18828,0.13204 -0.0831,-0.22251 0.16138,-0.0611 z m -0.3301,-0.38634 0.0489,-0.006 0.0391,0.0562 -0.0611,0.0245 -0.0269,-0.0746 z m -0.41446,0.0403 0.0673,0.1736 -0.21518,0.0807 -0.022,-0.23597 0.16995,-0.0184 z m -0.16872,-0.45114 0.022,0.0636 -0.0636,0.006 -0.009,-0.0758 0.0502,0.006 z m -0.55995,-0.53306 0.0575,0.0257 0.002,0.0208 -0.0648,-0.011 0.005,-0.0355 z m -0.37779,-0.16872 -0.0233,0.13694 -0.22618,-0.0354 0.0807,-0.17972 0.16872,0.0782 z m 0.0282,-0.51227 0.0476,0.0379 -0.01,0.0636 -0.0697,-0.033 0.0318,-0.0685 z m -0.32032,-0.26408 -0.077,0.1675 -0.21763,-0.099 0.15161,-0.18584 0.14304,0.11737 z m 0.15772,-0.48537 0.0378,0.0514 -0.0257,0.0574 -0.0587,-0.0489 0.0465,-0.06 z m -0.23963,-0.33866 -0.11737,0.14427 -0.18706,-0.1516 0.19684,-0.1406 0.10759,0.14793 z m 0.27875,-0.42546 0.0233,0.0587 -0.0416,0.0465 -0.0427,-0.0624 0.0611,-0.0427 z m -0.14671,-0.39124 -0.14794,0.10759 -0.14059,-0.19439 0.22373,-0.0831 0.0648,0.16994 z m 0.38145,-0.33866 0.006,0.0611 -0.0502,0.0354 -0.0282,-0.0709 0.0722,-0.0257 z m -0.0403,-0.41323 -0.17238,0.0647 -0.0856,-0.22495 0.23963,-0.0233 0.0184,0.18339 z m 0.44503,-0.16995 -0.0562,0.022 -0.009,-0.0746 0.0758,-0.007 -0.0111,0.0599 z m 0.57951,-0.57462 -0.0257,0.0575 -0.0611,0.005 0.0122,-0.0746 0.0746,0.0122 z m 0.17239,-0.379 -0.18217,-0.0305 0.0318,-0.19317 0.20662,0.0929 -0.0562,0.13082 z m 0.4817,0.0611 -0.0135,0.0159 -0.0598,-0.01 0.0134,-0.033 0.0599,0.0269 z m 0.26286,-0.32155 -0.15771,-0.0709 0.099,-0.21762 0.17727,0.14549 -0.11859,0.14304 z m 0.42424,0.19195 -0.0465,-0.0208 0.0502,-0.0611 0.0525,0.0427 -0.0562,0.0391 z m 0.81425,-0.009 -0.0623,0.0208 -0.0378,-0.0293 0.0611,-0.0465 0.0391,0.055 z m 0.38879,-0.14794 -0.10148,-0.14182 0.1944,-0.13815 0.0807,0.21273 -0.17361,0.0672 z m 0.33744,0.36923 -0.0648,0.007 -0.0305,-0.0403 0.0721,-0.0269 0.0233,0.0599 z m 0.41324,-0.0427 -0.0611,-0.15894 0.22373,-0.0856 0.022,0.22862 -0.18461,0.016 z m 0.16505,0.43769 -0.0184,-0.0465 0.0783,-0.009 0.005,0.0647 -0.0648,-0.01 z m 0.57706,0.61008 -0.0502,-0.0245 -0.011,-0.0954 0.0782,0.0122 -0.0171,0.10759 z m 0.37779,0.16749 0.0342,-0.21151 0.23718,0.0403 -0.11247,0.24574 -0.15894,-0.0746 z m -0.033,0.50004 -0.0428,-0.0342 0.009,-0.0538 0.0623,0.0282 -0.0282,0.06 z m 0.32154,0.26164 0.0709,-0.15649 0.20662,0.0941 -0.14304,0.17361 -0.13449,-0.11126 z m -0.19317,0.43036 0.022,-0.0501 0.0514,0.0416 -0.0416,0.0526 -0.0318,-0.044 z m -0.84237,0.8876 -0.22251,0.49638 -0.34722,0.42302 -0.44136,0.3191 -0.51227,0.19194 -0.54161,0.0525 -0.69444,-0.11004 -0.36311,-0.16505 -0.42913,-0.35088 -0.32521,-0.45481 -0.19807,-0.51838 -0.0562,-0.55384 0.0916,-0.55017 0.2274,-0.5086 0.35211,-0.42791 0.45236,-0.32644 0.52083,-0.19439 0.55384,-0.0575 0.3949,0.066 0.64064,0.28731 0.41935,0.34355 0.32032,0.44747 0.19195,0.5086 0.0562,0.54528 -0.0905,0.53673 z m -46.9955,-0.55383 c 0,-1.63707 0.088,-3.25945 0.26041,-4.86351 l 25.64158,4.19474 -25.8592,2.5858 c -0.0282,-0.63575 -0.0428,-1.27517 -0.0428,-1.91703 z m 89.89285,0 c 0,1.58448 -0.0843,3.1543 -0.24697,4.70823 l -25.556,-4.18252 25.75406,-2.57112 c 0.0293,0.67732 0.0489,1.36197 0.0489,2.04541 z M 277.64725,118.4211 c -28.39487,0 -51.41275,23.0191 -51.41275,51.41031 0,28.39609 23.01788,51.41397 51.41275,51.41397 28.39487,0 51.41275,-23.01788 51.41275,-51.41397 0,-28.39121 -23.01788,-51.41031 -51.41275,-51.41031"
           inkscape:connector-curvature="0" />
        <path
           id="path3075"
           style="fill:#ffffff;fill-opacity:1;fill-rule:nonzero;stroke:none"
           d="m 151.78417,204.60863 -14.80323,-20.59835 19.65451,16.08207 c -0.38023,0.41079 -0.76657,0.8167 -1.16392,1.21526 -1.17614,1.17492 -2.40852,2.27526 -3.68736,3.30102 z m -32.44656,9.49716 4.08959,-24.98994 2.51733,25.18677 c -0.64797,0.0294 -1.29962,0.0453 -1.95371,0.0453 -1.56615,0 -3.11763,-0.0831 -4.65321,-0.24208 z m -29.8082,-16.08085 20.70472,-14.88149 -16.117526,19.6973 c -0.547725,-0.49759 -1.084446,-1.00742 -1.608941,-1.53314 -1.052658,-1.05143 -2.045409,-2.14688 -2.978253,-3.28267 z m 6.352627,-62.73281 15.187133,21.13264 -20.109318,-16.45375 c 0.501266,-0.55383 1.01598,-1.09667 1.547811,-1.62728 1.078332,-1.07955 2.204346,-2.09553 3.374374,-3.05161 z m 32.938053,-9.727 -4.20941,25.72227 -2.59191,-25.93867 c 0.65531,-0.0282 1.31185,-0.0452 1.97205,-0.0452 1.62361,0 3.23622,0.0905 4.82927,0.26163 z m 30.02337,16.55522 -21.02626,15.11378 16.42318,-20.0702 c 0.4169,0.38635 0.82892,0.77758 1.23115,1.17981 1.20304,1.20549 2.32661,2.46476 3.37193,3.77661 z m -18.23507,32.87448 -7.22923,-3.26312 8.04715,-0.80325 26.75292,4.37691 c -0.16872,1.37665 -0.40101,2.73985 -0.69443,4.08593 l -26.87641,-4.39647 z m 1.39866,0.63086 25.39094,4.15562 c -0.4976,2.19212 -1.16147,4.33289 -1.98306,6.41131 l -23.40788,-10.56693 z m -3.08218,3.59444 -6.25848,-5.12147 7.8283,1.27884 24.77353,11.18434 c -0.51838,1.28006 -1.09911,2.53567 -1.73731,3.76316 l -24.60604,-11.10487 z m 1.18837,0.97075 23.23428,10.48746 c -1.03554,1.95004 -2.22024,3.8304 -3.54921,5.62028 l -19.68507,-16.10774 z m -8.70246,-3.92944 7.30381,3.29613 20.84165,17.05649 c -0.83015,1.09911 -1.71286,2.16155 -2.64937,3.18976 l -20.82454,-17.04182 -4.67155,-6.50056 z m -2.10043,0.96097 -0.86805,-2.30094 2.2447,1.01476 4.20941,5.85625 -5.58606,-4.57007 z m 3.11396,8.23176 -2.83154,-7.48842 6.19858,5.07256 15.68228,21.81973 c -1.09056,0.85705 -2.21412,1.66029 -3.37193,2.40975 l -15.67739,-21.81362 z m 0.54161,1.43533 14.80201,20.59346 c -1.87057,1.18715 -3.82306,2.2288 -5.84035,3.11519 l -8.96166,-23.70865 z m -4.77425,0.21518 -0.79713,-7.96646 4.67522,6.50423 9.49348,25.11219 c -1.26906,0.5465 -2.56501,1.03187 -3.88175,1.45489 l -9.48982,-25.10485 z m 0.1516,1.52458 8.95921,23.70131 c -2.09798,0.65409 -4.24853,1.15291 -6.44187,1.49157 l -2.51734,-25.19288 z m -3.37559,-8.92742 2.83398,7.49453 2.66527,26.68446 c -1.35953,0.19928 -2.73618,0.33377 -4.12505,0.40468 l -2.66771,-26.68446 1.29351,-7.89921 z m -2.16156,-0.80814 1.00987,-2.24103 0.87049,2.30705 -1.16392,7.11553 -0.71644,-7.18155 z m -3.62256,8.02147 3.29368,-7.29891 0.79836,7.97257 -4.33289,26.47416 c -1.3791,-0.15527 -2.74474,-0.37289 -4.09204,-0.65164 l 4.33289,-26.49618 z m -0.62842,1.39988 -4.09448,25.01439 c -2.16767,-0.47071 -4.28766,-1.09912 -6.34774,-1.88525 l 10.44222,-23.12914 z m -3.52842,-3.22766 5.06768,-6.19614 -1.29351,7.90655 -11.05842,24.50334 c -1.28739,-0.50493 -2.55034,-1.0661 -3.78394,-1.68963 l 11.06819,-24.52412 z m -0.97319,1.18714 -10.44956,23.15359 c -1.95982,-1.01109 -3.848739,-2.17378 -5.649627,-3.47707 l 16.099187,-19.67652 z m 3.92699,-8.70002 -3.29613,7.30259 -17.052813,20.83921 c -1.10523,-0.81548 -2.178672,-1.68719 -3.216659,-2.61392 l 17.063822,-20.85266 6.50178,-4.67522 z m -0.95974,-2.0992 2.29971,-0.86927 -1.01231,2.24592 -5.85625,4.20941 4.56885,-5.58606 z m -8.22932,3.11152 7.4872,-2.83032 -5.07256,6.19858 -21.923655,15.7593 c -0.871713,-1.08077 -1.692077,-2.19701 -2.452534,-3.34258 l 21.961549,-15.78498 z m -1.43533,0.54283 -20.743842,14.9096 c -1.218932,-1.87424 -2.289929,-3.83285 -3.208101,-5.85625 l 23.951943,-9.05335 z m -0.21762,-4.77547 7.96646,-0.79714 -6.50301,4.67645 -25.361601,9.58762 c -0.557506,-1.26539 -1.056326,-2.55523 -1.494017,-3.8683 l 25.392168,-9.59863 z m -1.52703,0.15527 -23.98862,9.06679 c -0.684656,-2.11998 -1.210374,-4.29499 -1.571041,-6.51523 l 25.559661,-2.55156 z m 1.03065,-4.67033 7.89922,1.29351 -7.49209,2.83276 -27.059793,2.70439 c -0.209065,-1.35953 -0.355777,-2.73495 -0.436468,-4.12138 l 27.089131,-2.70928 z m 0.53183,-4.51628 7.36983,3.32913 -7.89065,0.78613 -26.928977,-4.40624 c 0.146712,-1.38032 0.355776,-2.74596 0.625971,-4.09571 l 26.823826,4.38669 z m -1.39987,-0.62964 -25.339597,-4.14706 c 0.463365,-2.20068 1.091781,-4.35245 1.880358,-6.4431 l 23.459239,10.59016 z m 3.35603,-3.47096 6.14112,5.02366 -7.98357,-1.30696 -24.834665,-11.21124 c 0.500043,-1.2874 1.058771,-2.55156 1.679851,-3.78883 l 24.997264,11.28337 z m -1.1847,-0.97075 -23.632841,-10.66718 c 1.024538,-2.00384 2.206792,-3.93432 3.538202,-5.77556 l 20.094639,16.44274 z m 8.69635,3.92455 -7.29769,-3.29491 -21.261005,-17.39392 c 0.816697,-1.10768 1.68841,-2.18112 2.612695,-3.22155 l 21.27078,17.40493 4.67522,6.50545 z m 2.09187,-0.9683 0.87172,2.30582 -2.23981,-1.00987 -4.2143,-5.86358 5.58239,4.56763 z m -3.11396,-8.23543 2.83154,7.49209 -6.19613,-5.0689 -16.062513,-22.34912 c 1.080778,-0.87049 2.200679,-1.68596 3.349922,-2.44397 l 16.077181,22.3699 z m -0.54161,-1.43411 -15.203024,-21.15219 c 1.913364,-1.23605 3.909874,-2.32294 5.979734,-3.24601 l 9.22329,24.3982 z m 4.76936,-0.2274 0.79958,7.97257 -4.67277,-6.50056 -9.75513,-25.80174 c 1.26906,-0.55262 2.55891,-1.0441 3.87442,-1.4769 l 9.7539,25.80663 z m -0.1516,-1.52581 -9.22207,-24.39942 c 2.15789,-0.68465 4.37079,-1.20548 6.62893,-1.55147 l 2.59314,25.95089 z m 3.37437,8.92498 -2.83276,-7.48965 -2.74229,-27.44735 c 1.35953,-0.19807 2.73618,-0.335 4.12627,-0.40591 l 2.74107,27.43758 -1.29229,7.90533 z m 2.16156,0.79591 -1.01354,2.24591 -0.86682,-2.2997 1.16514,-7.12042 0.71522,7.17421 z m 3.62378,-8.02514 -3.2949,7.30014 -0.79714,-7.96646 4.45271,-27.20651 c 1.37787,0.16017 2.74351,0.38635 4.09204,0.67121 l -4.45271,27.20162 z m 0.63209,-1.39988 4.20818,-25.71982 c 2.22391,0.49026 4.39769,1.15413 6.50668,1.97694 l -10.71486,23.74288 z m 3.53209,3.21544 -5.07501,6.20102 1.29595,-7.90044 11.33105,-25.11097 c 1.28373,0.51472 2.54057,1.08934 3.77295,1.72142 l -11.32494,25.08897 z m 0.97074,-1.18715 10.7063,-23.7172 c 1.99529,1.05021 3.91721,2.25569 5.74622,3.61278 l -16.45252,20.10442 z m -3.92454,8.69513 3.2949,-7.2977 17.39759,-21.261 c 1.09667,0.82892 2.164,1.70919 3.19099,2.6457 l -17.37681,21.23656 -6.50667,4.67644 z m 0.96707,2.09309 -2.30337,0.87049 1.00986,-2.2398 5.86114,-4.21063 -4.56763,5.57994 z m 8.23666,-3.11518 -7.49209,2.83521 5.06645,-6.19736 22.24886,-15.99038 c 0.85582,1.09545 1.65663,2.22391 2.40119,3.38049 l -22.22441,15.97204 z m 1.43533,-0.54161 21.00303,-15.09666 c 1.20671,1.9097 2.25448,3.9062 3.1482,5.96506 l -24.15123,9.1316 z m 0.22618,4.7718 -7.97257,0.79714 6.503,-4.674 25.55233,-9.65854 c 0.54039,1.27151 1.01598,2.57113 1.43411,3.89031 l -25.51687,9.64509 z m 1.52458,-0.15282 24.11211,-9.11326 c 0.65286,2.13344 1.14557,4.32433 1.47078,6.55802 l -25.58289,2.55524 z m -8.92375,3.37437 7.48842,-2.83154 27.07202,-2.70439 c 0.18461,1.36075 0.31298,2.73862 0.37289,4.12872 l -27.02801,2.6995 -7.90532,-1.29229 z m -3.0944,1.16881 2.35228,-0.88761 7.12164,1.16514 -7.25613,0.725 -2.21779,-1.00253 z m -0.70422,1.29473 -0.85827,-0.70177 1.03677,-0.39246 1.95249,0.8815 -2.13099,0.21273 z m 0.4328,0.35455 2.42319,-0.24207 6.50545,2.93668 -7.04217,-1.15169 -1.88647,-1.54292 z m -1.01354,1.06978 -0.64675,-0.90228 1.10278,-0.11004 1.65907,1.35587 -2.1151,-0.34355 z m 0.32766,0.4548 2.40241,0.39246 5.64352,4.61776 -6.57881,-2.96847 -1.46712,-2.04175 z m -1.64929,-0.27019 1.09545,0.1785 1.29718,1.807 -1.97939,-0.89372 -0.41324,-1.09178 z m -0.97196,0.46703 -0.0636,-0.63697 0.58318,0.0965 0.35211,0.93407 -0.87171,-0.39368 z m 0.15649,1.5686 -0.11126,-1.11379 1.02699,0.46459 0.76535,2.02584 -1.68108,-1.37664 z m 0.0551,0.55873 1.90725,1.56248 2.55034,6.74386 -4.21185,-5.8587 -0.24574,-2.44764 z m -1.48791,0.0367 0.18095,-1.10523 0.87293,0.714 0.21396,2.15544 -1.26784,-1.76421 z m -0.0905,0.55506 1.439,1.99895 0.71767,7.17666 -2.55157,-6.74997 0.3949,-2.42564 z m -0.98419,-1.37053 0.65653,0.9145 -0.34966,2.13955 -0.76779,-2.0344 0.46092,-1.01965 z m -0.99887,-0.40224 0.37779,-0.46214 0.35211,0.48904 -0.39246,0.86927 -0.33744,-0.89617 z m -0.99886,1.22016 0.70911,-0.86682 0.39734,1.05632 -0.89127,1.9745 -0.21518,-2.164 z m -0.35578,0.43647 0.2433,2.45253 -2.96602,6.57147 1.16636,-7.12286 1.55636,-1.90114 z m -1.07588,-1.02576 0.90717,-0.65287 0.11125,1.1199 -1.37053,1.67618 0.35211,-2.14321 z m -0.45726,0.32643 -0.39612,2.43175 -4.56885,5.58117 2.96847,-6.57759 1.9965,-1.43533 z m 0.27142,-1.6664 -0.18217,1.11256 -1.75809,1.26539 0.89249,-1.98183 1.04777,-0.39612 z m -0.42179,-0.98786 0.59296,-0.0599 -0.0965,0.5954 -0.8925,0.33744 0.39612,-0.87293 z m -1.57105,0.15527 1.11624,-0.11126 -0.46459,1.02821 -2.02585,0.76657 1.3742,-1.68352 z m -0.55872,0.0587 -1.55882,1.90481 -6.74508,2.55034 5.8587,-4.21185 2.4452,-0.2433 z m -0.0354,-1.4879 1.10523,0.1785 -0.71278,0.87171 -2.15544,0.2164 1.76299,-1.26661 z m -0.55628,-0.0905 -1.99895,1.43655 -7.17666,0.71522 6.75119,-2.55156 2.42442,0.39979 z m 0.29709,-1.428 1.03676,0.46825 -0.87538,0.63087 -2.14077,-0.35089 1.97939,-0.74823 z m -0.51105,-0.22985 -2.2508,0.85093 -7.11675,-1.16514 7.09963,-0.70911 2.26792,1.02332 z m 0.71033,-1.32041 0.87783,0.72011 -1.06244,0.40102 -2.00262,-0.9035 2.18723,-0.21763 z m -0.43646,-0.35577 -2.47332,0.24696 -6.6485,-3.00026 7.19867,1.17737 1.92315,1.57593 z m 1.0282,-1.09301 0.66387,0.92184 -1.1309,0.11493 -1.70186,-1.39132 2.16889,0.35455 z m -0.32888,-0.45725 -2.4562,-0.39979 -5.52126,-4.52117 6.57392,2.96969 1.40354,1.95127 z m 1.67496,0.27509 -1.12112,-0.18339 -1.2336,-1.71898 1.97449,0.89372 0.38023,1.00865 z m 1.00009,-0.38635 0.055,0.55873 -0.6003,-0.0965 -0.32154,-0.8546 0.86682,0.39245 z m -0.15894,-1.57593 0.1137,1.11868 -1.02087,-0.46092 -0.76901,-2.03196 1.67618,1.3742 z m -0.055,-0.55995 -1.90358,-1.55759 -2.55035,-6.74997 4.20697,5.85625 0.24696,2.45131 z m 1.48179,-0.0489 -0.18216,1.11256 -0.86438,-0.70788 -0.21518,-2.16278 1.26172,1.7581 z m 0.0929,-0.55384 -1.43411,-1.99528 -0.71889,-7.18155 2.54912,6.74508 -0.39612,2.43175 z m 0.98053,1.36687 -0.65287,-0.90962 0.34966,-2.14566 0.76657,2.02829 -0.46336,1.02699 z m 1.00008,0.38756 -0.38512,0.46826 -0.34721,-0.48415 0.39367,-0.87416 0.33866,0.89005 z m 1.00253,-1.22504 -0.71277,0.87171 -0.39612,-1.04899 0.89372,-1.98061 0.21517,2.15789 z m 0.35456,-0.43647 -0.2433,-2.44398 2.96969,-6.58003 -1.16513,7.11798 -1.56126,1.90603 z m 1.08322,1.0172 -0.9145,0.65776 -0.11126,-1.11379 1.37298,-1.68229 -0.34722,2.13832 z m 0.45603,-0.32888 0.39735,-2.42441 4.5713,-5.58606 -2.96848,6.5727 -2.00017,1.43777 z m -0.27142,1.66029 0.17973,-1.104 1.76543,-1.26906 -0.89128,1.9745 -1.05388,0.39856 z m 0.43036,0.98175 -0.60152,0.06 0.0965,-0.58807 0.89738,-0.33989 -0.39245,0.86805 z m 1.57715,-0.15894 -1.12112,0.11248 0.46092,-1.02087 2.03318,-0.76779 -1.37298,1.67618 z m 0.55995,-0.0551 1.55515,-1.90237 6.75119,-2.55156 -5.8538,4.20818 -2.45254,0.24575 z m 0.0452,1.48301 -1.11012,-0.18095 0.70666,-0.86682 2.16278,-0.21762 -1.75932,1.26539 z m 0.55384,0.0893 1.9965,-1.43167 7.18155,-0.71888 -6.74508,2.55034 -2.43297,-0.39979 z m -1.4011,1.01109 0.94751,-0.68099 2.14322,0.35089 -2.08086,0.7849 -1.00987,-0.4548 z m -0.85338,0.61252 0.48049,-0.34722 0.85704,0.38879 -0.88027,0.33255 -0.45726,-0.37412 z m -0.40957,0.70299 -0.19317,-0.26897 0.26897,-0.19317 0.36312,0.29587 -0.43892,0.16627 z m 0.23841,0.33377 0.55506,-0.21028 0.72867,0.5954 -0.93773,0.0965 -0.346,-0.4817 z m -0.57829,0.5734 -0.1137,-0.31176 0.30687,-0.11492 0.27509,0.379 -0.46826,0.0476 z m 0.14671,0.3839 0.58807,-0.06 0.55017,0.76657 -0.92917,-0.15038 -0.20907,-0.55628 z m -0.73967,0.0745 0.33132,-0.0342 0.16628,0.43891 -0.46214,-0.0734 -0.0354,-0.33132 z m -0.59418,0.2274 0.0282,-0.17238 0.17116,-0.016 0.022,0.22496 -0.22129,-0.0367 z m -0.12349,0.76168 0.06,-0.37045 0.32643,0.055 0.0513,0.51227 -0.43769,-0.19684 z m -0.0685,0.40468 0.55261,0.24941 0.0941,0.94507 -0.74089,-0.60641 0.0941,-0.58807 z m -0.82159,-0.006 0.13693,-0.3032 0.31177,0.1406 -0.0771,0.46703 -0.37167,-0.30443 z m -0.16994,0.3729 0.46703,0.38389 -0.15527,0.93896 -0.5575,-0.77757 0.24574,-0.54528 z m -0.58318,-0.47682 0.26286,0.21763 -0.19195,0.43035 -0.28242,-0.39001 0.21151,-0.25797 z m -0.59052,-0.26775 0.13938,-0.099 0.14305,0.11737 -0.14427,0.17361 -0.13816,-0.19195 z m -0.58929,0.42669 0.26653,-0.19439 0.2005,0.27875 -0.30075,0.36678 -0.16628,-0.45114 z m -0.33744,0.24085 0.21518,0.56362 -0.60152,0.73723 -0.0954,-0.95363 0.4817,-0.34722 z m -0.57584,-0.58807 0.31054,-0.11859 0.12226,0.32032 -0.3839,0.27509 -0.0489,-0.47682 z m -0.38634,0.14549 0.0623,0.60152 -0.7739,0.55506 0.15404,-0.94629 0.55751,-0.21029 z m -0.0734,-0.7519 0.033,0.34233 -0.44258,0.1675 0.0782,-0.47559 0.33132,-0.0342 z m -0.22618,-0.60396 0.1675,0.0293 0.0184,0.18095 -0.22374,0.0233 0.0379,-0.23351 z m -0.72133,-0.11615 0.32765,0.0526 -0.0538,0.33622 -0.47192,0.0476 0.19806,-0.43647 z m -0.40713,-0.0672 -0.24696,0.55139 -0.94752,0.0929 0.60641,-0.7409 0.58807,0.0966 z m -0.0196,-0.79347 0.31176,0.14305 -0.12226,0.27508 -0.46703,-0.0758 0.27753,-0.34233 z m -0.37534,-0.16872 -0.35455,0.43647 -0.9414,-0.15405 0.74089,-0.53183 0.55506,0.24941 z m 0.21396,-0.80202 0.2653,0.21762 -0.21762,0.26775 -0.4438,-0.20051 0.39612,-0.28486 z m -0.32032,-0.26042 -0.49271,0.35578 -0.88639,-0.39857 0.9084,-0.34233 0.4707,0.38512 z m 0.41446,-0.71888 0.19928,0.27875 -0.27875,0.2005 -0.37778,-0.30931 0.45725,-0.16994 z m -0.24085,-0.335 -0.57096,0.2164 -0.74945,-0.61496 0.96463,-0.0954 0.35578,0.49393 z m 0.58318,-0.58807 0.1247,0.32155 -0.32277,0.12226 -0.28364,-0.3949 0.48171,-0.0489 z m -0.14427,-0.38389 -0.60519,0.0599 -0.56484,-0.78735 0.95485,0.15772 0.21518,0.56973 z m 0.75068,-0.0746 -0.34111,0.0342 -0.17116,-0.45358 0.48048,0.0758 0.0318,0.34355 z m 0.6064,-0.23841 -0.0282,0.18095 -0.18217,0.0171 -0.0245,-0.23718 0.23474,0.0391 z m 0.11371,-0.69077 -0.0501,0.29832 -0.33866,-0.0562 -0.0427,-0.43525 0.43157,0.19317 z m 0.066,-0.40468 -0.54406,-0.24574 -0.0954,-0.95363 0.73722,0.60274 -0.0978,0.59663 z m 0.81914,-0.006 -0.1406,0.31177 -0.30443,-0.13693 0.0782,-0.47559 0.36678,0.30075 z m 0.16994,-0.37533 -0.46337,-0.37779 0.15405,-0.94629 0.55506,0.77391 -0.24574,0.55017 z m 0.57462,0.46947 -0.25797,-0.20906 0.19806,-0.44014 0.27753,0.38635 -0.21762,0.26285 z m 0.58929,0.25431 -0.14793,0.10636 -0.13571,-0.10759 0.15283,-0.18339 0.13081,0.18462 z m 0.6003,-0.43036 -0.27753,0.20051 -0.19439,-0.27264 0.30442,-0.37167 0.1675,0.4438 z m 0.33499,-0.24085 -0.21028,-0.55995 0.60518,-0.73845 0.0954,0.94507 -0.49027,0.35333 z m 0.58318,0.57462 -0.32032,0.12104 -0.11859,-0.31054 0.39123,-0.2812 0.0476,0.4707 z m 0.38512,-0.14549 -0.0611,-0.59418 0.78002,-0.55751 -0.15527,0.93774 -0.56362,0.21395 z m 0.0734,0.7409 -0.033,-0.33255 0.44991,-0.16994 -0.0758,0.46948 -0.3411,0.0331 z m 0.2384,0.5954 -0.18094,-0.0293 -0.0159,-0.16994 0.23351,-0.0257 -0.0367,0.22496 z m 0.73112,0.11737 -0.33988,-0.0526 0.0525,-0.32888 0.48048,-0.0489 -0.19317,0.43035 z m 0.40468,0.0685 0.24574,-0.54406 0.95118,-0.0954 -0.60029,0.736 -0.59663,-0.0965 z m -0.022,0.85093 -0.30076,-0.13571 0.15161,-0.33989 0.47803,0.0758 -0.32888,0.39979 z m 0.37534,0.16994 0.4059,-0.49516 0.94507,0.1565 -0.8118,0.58073 -0.53917,-0.24207 z m -0.46948,0.57462 0.20784,-0.25797 0.42791,0.19439 -0.379,0.27387 -0.25675,-0.21029 z m -0.36066,0.44258 0.10881,-0.13326 0.17361,0.14182 -0.18217,0.12959 -0.10025,-0.13815 z m -0.27753,0.40957 -0.0184,-0.0501 0.0354,-0.0416 0.0379,0.0525 -0.055,0.0391 z m 0.14671,0.38634 0.1406,-0.10147 0.13081,0.18216 -0.21151,0.0782 -0.06,-0.15894 z m -0.3729,0.32521 -0.006,-0.0562 0.0464,-0.0293 0.022,0.0624 -0.0623,0.0232 z m 0.0403,0.40591 0.16261,-0.0599 0.0795,0.21029 -0.22495,0.0233 -0.0171,-0.17361 z m -0.43402,0.16505 0.0489,-0.0183 0.009,0.0672 -0.066,0.007 0.009,-0.0562 z m -0.55995,0.5575 0.0208,-0.0501 0.0538,-0.006 -0.0111,0.0672 -0.0636,-0.0111 z m -0.16872,0.37412 0.16994,0.0282 -0.0452,0.26286 -0.21395,-0.0954 0.0893,-0.19561 z m -0.52327,-9.8e-4 0.0623,-0.0722 0.0538,0.009 -0.044,0.0954 -0.0721,-0.0318 z m -0.26042,0.31788 0.16872,0.0758 -0.0929,0.20662 -0.18461,-0.14916 0.10881,-0.13326 z m -0.4328,-0.19684 0.0599,0.0293 -0.0416,0.0489 -0.0587,-0.0489 0.0403,-0.0293 z m -0.79224,-0.0147 0.0465,-0.0184 0.0513,0.0428 -0.0513,0.0367 -0.0465,-0.0611 z m -0.3839,0.14426 0.10759,0.14916 -0.18461,0.13204 -0.0831,-0.21884 0.16016,-0.0623 z m -0.32888,-0.38389 0.0489,-0.005 0.0416,0.0551 -0.0611,0.0233 -0.0294,-0.0734 z m -0.40957,0.0404 0.066,0.17361 -0.21151,0.0795 -0.0245,-0.23474 0.16994,-0.0183 z m -0.16627,-0.44625 0.0208,0.0623 -0.0624,0.006 -0.007,-0.0758 0.0489,0.007 z m -0.55506,-0.52694 0.0562,0.0245 9.8e-4,0.0196 -0.0623,-0.01 0.005,-0.0342 z m -0.37412,-0.16872 -0.0233,0.13816 -0.22251,-0.0367 0.0795,-0.17728 0.16627,0.0758 z m 0.0269,-0.50737 0.0489,0.0403 -0.01,0.06 -0.0697,-0.0318 0.0305,-0.0685 z m -0.31788,-0.26042 -0.0758,0.16628 -0.21517,-0.099 0.15038,-0.18339 0.14059,0.11615 z m 0.16016,-0.48293 0.0354,0.0501 -0.0257,0.0562 -0.0599,-0.0465 0.0501,-0.0599 z m -0.24207,-0.33376 -0.1137,0.14059 -0.18461,-0.14671 0.19317,-0.1406 0.10514,0.14672 z m 0.27998,-0.42302 0.0208,0.0574 -0.0403,0.0502 -0.0428,-0.0636 0.0624,-0.044 z m -0.14672,-0.3839 -0.14671,0.10759 -0.1406,-0.19562 0.22252,-0.0844 0.0648,0.17239 z m 0.37779,-0.33988 0.007,0.0636 -0.0513,0.0354 -0.0269,-0.0696 0.0709,-0.0293 z m -0.0403,-0.40591 -0.17116,0.0611 -0.0831,-0.22006 0.23596,-0.0233 0.0184,0.18216 z m 0.44258,-0.16871 -0.0587,0.0208 -0.007,-0.0734 0.0746,-0.01 -0.009,0.0624 z m 0.57218,-0.56974 -0.0245,0.0562 -0.0623,0.007 0.0122,-0.077 0.0746,0.0134 z m 0.16994,-0.37533 -0.18095,-0.0305 0.033,-0.19195 0.20661,0.0929 -0.0587,0.12959 z m 0.47804,0.0598 -0.011,0.0171 -0.0624,-0.01 0.0159,-0.033 0.0574,0.0257 z m 0.26041,-0.31787 -0.15527,-0.0709 0.0978,-0.21396 0.17605,0.14305 -0.11859,0.14182 z m 0.41935,0.19072 -0.044,-0.0208 0.0501,-0.0611 0.0476,0.0416 -0.0538,0.0403 z m 0.80814,-0.0122 -0.0636,0.022 -0.0367,-0.0305 0.0623,-0.0427 0.0378,0.0514 z m 0.38512,-0.14427 -0.10026,-0.13938 0.19195,-0.13815 0.0795,0.21151 -0.17116,0.066 z m 0.33499,0.36678 -0.0685,0.007 -0.0282,-0.0403 0.0733,-0.0293 0.0232,0.0624 z m 0.40957,-0.0416 -0.0624,-0.15894 0.22251,-0.0844 0.0208,0.22618 -0.18095,0.0171 z m 0.16261,0.43158 -0.0184,-0.0465 0.0782,-0.007 0.006,0.0648 -0.066,-0.011 z m 0.57217,0.60396 -0.0489,-0.022 -0.011,-0.0978 0.0758,0.0147 -0.016,0.10514 z m 0.3729,0.16995 0.0354,-0.21029 0.23352,0.0378 -0.11004,0.24207 -0.15893,-0.0696 z m -0.0318,0.4927 -0.0427,-0.033 0.009,-0.0562 0.0611,0.0293 -0.0269,0.0599 z m 0.31787,0.26042 0.0697,-0.15894 0.2054,0.0941 -0.14182,0.17483 -0.13327,-0.11003 z m -0.19439,0.42546 0.0257,-0.0501 0.0501,0.0428 -0.0416,0.0513 -0.0342,-0.044 z m -0.83014,0.87905 -0.22252,0.49149 -0.3411,0.41568 -0.44136,0.31788 -0.50249,0.19194 -0.54161,0.0538 -0.6871,-0.1137 -0.357,-0.16016 -0.42791,-0.34967 -0.32277,-0.44869 -0.19195,-0.51472 -0.0574,-0.54894 0.0905,-0.54528 0.22741,-0.50005 0.34599,-0.42546 0.45114,-0.32277 0.51105,-0.19439 0.55139,-0.0562 0.39001,0.066 0.63575,0.28487 0.41691,0.34232 0.31543,0.43892 0.19072,0.50493 0.0525,0.53917 -0.0856,0.53305 z m -46.554145,-0.97686 c 0,-1.47934 0.07218,-2.94646 0.212732,-4.39646 l 25.445963,4.16172 -25.598788,2.56013 c -0.03912,-0.77146 -0.05996,-1.54781 -0.05996,-2.32539 z m 89.043135,0 c 0,1.71287 -0.0978,3.40861 -0.28853,5.08479 l -25.26746,-4.13605 25.52298,-2.55279 c 0.0208,0.53428 0.033,1.06856 0.033,1.60405 z m -44.51973,-50.92738 c -28.128347,0 -50.931049,22.80148 -50.931049,50.92738 0,28.12468 22.802702,50.92738 50.931049,50.92738 28.12468,0 50.92616,-22.8027 50.92616,-50.92738 0,-28.1259 -22.80148,-50.92738 -50.92616,-50.92738"
           inkscape:connector-curvature="0" />
        <path
           id="path3077"
           style="fill:#ffffff;fill-opacity:1;fill-rule:nonzero;stroke:none"
           d="m 124.54466,176.82751 c 3.1323,-0.56851 5.50903,-3.30225 5.50903,-6.59715 0,-2.67505 -1.56982,-4.97965 -3.83529,-6.05676 l 53.6391,0.0526 c -5.94305,1.91215 -10.2466,7.48231 -10.2466,14.0599 0,5.26329 2.75329,9.8786 6.89668,12.49252 l -51.96292,-13.95109 z m 49.84782,6.4431 c 0.51838,-0.33011 1.20304,-0.17361 1.53192,0.34477 0.59907,0.9524 1.35342,1.78988 2.23247,2.49166 0.48048,0.38267 0.55872,1.08077 0.1785,1.56003 -0.22007,0.27509 -0.54284,0.41813 -0.86805,0.41813 -0.24452,0 -0.48904,-0.0782 -0.69199,-0.24207 -1.07467,-0.85582 -1.99406,-1.87914 -2.72884,-3.04183 -0.32888,-0.51838 -0.17361,-1.20304 0.34599,-1.53069 z m 0.54528,-8.266 c -0.36433,1.05266 -0.55261,2.15667 -0.55261,3.28146 0,0.61252 -0.49516,1.1199 -1.11012,1.1199 -0.61375,0 -1.1089,-0.48537 -1.1089,-1.0979 l 0,-0.022 c 0,-1.3742 0.2274,-2.72273 0.67487,-4.00891 0.20051,-0.58073 0.83137,-0.88638 1.41333,-0.68587 0.57829,0.20295 0.88516,0.83503 0.68343,1.41332 z m 4.10305,-5.16793 c -0.94874,0.60274 -1.78867,1.35587 -2.49044,2.23858 -0.2164,0.27631 -0.54283,0.41813 -0.86805,0.41813 -0.24207,0 -0.48659,-0.0795 -0.69199,-0.24085 -0.47681,-0.38267 -0.55995,-1.07956 -0.17605,-1.56004 0.85582,-1.07589 1.87913,-1.9965 3.03938,-2.73129 0.51838,-0.32765 1.20426,-0.1736 1.53192,0.34356 0.32766,0.51838 0.17483,1.20426 -0.34477,1.53191 z m 0.78735,7.12287 -4.30966,0.10147 c 0.28853,-2.11387 1.32163,-3.99668 2.8242,-5.37088 l 2.35962,3.60178 c -0.39612,0.48537 -0.69444,1.05144 -0.87416,1.66763 z m 13.98165,4.62754 c 0.37167,-1.05878 0.55995,-2.17012 0.55995,-3.30102 l -9.8e-4,-0.0403 c 0,-0.61374 0.49637,-1.11012 1.11134,-1.11012 0.61252,0 1.1089,0.49638 1.1089,1.11012 l 0,0.0293 c 0,1.39254 -0.22863,2.74963 -0.68099,4.04436 -0.16016,0.45725 -0.58807,0.74456 -1.04899,0.74456 -0.11981,0 -0.2433,-0.0208 -0.36556,-0.0624 -0.57829,-0.20417 -0.88393,-0.83625 -0.68343,-1.41454 z m -4.11038,5.15814 c 0.95118,-0.60029 1.79233,-1.35097 2.49288,-2.23246 0.38145,-0.47682 1.082,-0.55629 1.56003,-0.17484 0.47926,0.38268 0.55629,1.082 0.17606,1.56126 -0.85827,1.07711 -1.88158,1.99162 -3.04672,2.72518 -0.18217,0.11737 -0.38879,0.17116 -0.59051,0.17116 -0.36923,0 -0.72867,-0.18217 -0.93896,-0.5196 -0.32766,-0.51838 -0.17361,-1.20304 0.34722,-1.5307 z m -4.317,0.42791 0.20906,-4.30599 c 0.62108,-0.16505 1.19204,-0.45114 1.68597,-0.83259 l 3.54554,2.45009 c -1.41088,1.46467 -3.31325,2.45253 -5.44057,2.68849 z m -1.0062,-17.83283 c 1.60527,0 3.10907,0.42668 4.41358,1.1688 l -2.70072,3.35848 c -0.53305,-0.20784 -1.10767,-0.32399 -1.71286,-0.32399 -0.0452,0 -0.0941,0.006 -0.1406,0.006 l -1.43044,-4.06881 c 0.51105,-0.0905 1.03554,-0.1406 1.57104,-0.1406 z m 4.68622,-1.18103 c -0.15893,0.45725 -0.58807,0.74578 -1.04899,0.74578 -0.11859,0 -0.24085,-0.0196 -0.36311,-0.0611 -1.04777,-0.36311 -2.15055,-0.54895 -3.27412,-0.54895 -0.0109,0 -0.0208,0 -0.0318,0 -0.61252,0 -1.1089,-0.49637 -1.1089,-1.11134 0,-0.61252 0.49638,-1.11012 1.11012,-1.11012 0.007,0 0.0196,9.8e-4 0.0354,9.8e-4 1.36931,9.8e-4 2.71417,0.2274 3.9979,0.67121 0.57707,0.2005 0.88394,0.83259 0.68343,1.41332 z m 1.34119,0.73722 c 0.37901,-0.48048 1.07834,-0.56239 1.5576,-0.18216 1.07955,0.85582 1.99895,1.87791 2.73617,3.03816 0.32644,0.51838 0.17484,1.20426 -0.34355,1.53436 -0.18461,0.11492 -0.38878,0.17116 -0.59418,0.17116 -0.36678,0 -0.72745,-0.17972 -0.93896,-0.51471 -0.60152,-0.95118 -1.35586,-1.78867 -2.23858,-2.48921 -0.47925,-0.37901 -0.56117,-1.07834 -0.1785,-1.5576 z m 1.86202,5.17282 c 0.67488,1.25806 1.05877,2.69339 1.05877,4.21675 0,0.61496 -0.0623,1.21404 -0.18094,1.79233 l -4.0358,-1.53192 c 0.004,-0.0868 0.0134,-0.17116 0.0134,-0.26041 0,-0.5624 -0.10514,-1.09667 -0.28364,-1.59794 l 3.42816,-2.61881 z m -16.0295,7.92 4.15929,-1.13213 c 0.34477,0.53183 0.78979,0.99275 1.31307,1.34853 l -1.23361,4.12994 c -1.86935,-0.91206 -3.37437,-2.45253 -4.23875,-4.34634 z m 3.43673,6.41865 c 0.20295,-0.57829 0.83626,-0.88639 1.41455,-0.68466 1.05388,0.36923 2.16155,0.55384 3.28879,0.55384 0.0147,0 0.0282,0 0.0416,0 0.59907,0.0171 1.07955,0.5086 1.07955,1.11134 0,0.61253 -0.49637,1.11257 -1.11012,1.11257 -0.007,0 -0.0159,-0.002 -0.0257,-0.002 -1.3742,-0.002 -2.72151,-0.23107 -4.00646,-0.67732 -0.57829,-0.20295 -0.88394,-0.83503 -0.68221,-1.41332 z m 6.12645,-24.81755 -0.006,-0.004 -0.033,0 c -0.45359,-0.0427 -0.91573,-0.066 -1.38399,-0.066 -0.45236,0 -0.90105,0.022 -1.34608,0.0636 l -59.44156,-0.0611 -9.8e-4,0.01 c -0.0819,-0.002 -0.16016,-0.0122 -0.24207,-0.0122 -3.7057,0 -6.70963,3.00393 -6.70963,6.70962 0,3.19343 2.23002,5.85992 5.2205,6.53847 l -0.002,0.006 58.03802,15.58203 c 0.41202,0.13081 0.83259,0.24329 1.25806,0.33866 l 0.0916,0.0245 0.01,-0.002 c 1.0062,0.21885 2.05275,0.33622 3.12497,0.33622 8.15718,0 14.76655,-6.6106 14.76655,-14.76778 0,-7.67426 -5.85625,-13.98043 -13.34345,-14.69565"
           inkscape:connector-curvature="0" />
        <path
           id="path3079"
           style="fill:#ffffff;fill-opacity:1;fill-rule:nonzero;stroke:none"
           d="m 231.85955,120.39843 -8.2281,9.10836 -8.16818,9.16705 c -5.399,6.14968 -10.84813,12.25656 -16.12242,18.52116 -1.31919,1.56738 -2.6396,3.1323 -3.93433,4.71679 -1.2984,1.58571 -2.61269,3.15553 -3.88909,4.75958 l -1.92437,2.39752 -1.90236,2.41952 c -0.65776,0.8436 -1.31552,1.68964 -1.9635,2.54301 l -19.30729,-68.3372 c -0.20173,-1.00008 -0.11615,-2.16277 1.39621,-2.28748 -0.006,-0.004 -0.10637,-0.0257 -0.2653,-0.0538 2.32538,-0.16628 4.64954,-0.3191 6.97615,-0.44258 3.51742,-0.19562 7.03606,-0.34966 10.55959,-0.49149 0.22007,-0.0122 0.44014,-0.0208 0.66265,0.0587 0.22373,0.0685 0.45114,0.17972 0.67365,0.22984 0.22374,0.0538 0.44136,0.0257 0.66265,0.0208 l 0.6602,-0.0269 2.6396,-0.10392 5.28163,-0.21273 c 3.51986,-0.16872 7.03972,-0.30932 10.55714,-0.51227 l 10.55593,-0.56973 c 1.75932,-0.11859 3.52353,-0.0905 5.26573,-0.52083 l 5.27796,-0.28242 5.27919,-0.2812 1.73487,-0.0807 12.46073,3.70203 0.11615,0.34111 c -5.08479,5.34887 -10.07911,10.77354 -15.05509,16.21778 z m -103.65198,46.23871 32.96494,-58.23119 c 0.50861,-0.69077 1.44634,-0.72256 1.67741,0.11859 0.24085,0.88761 2.31805,7.60824 2.47576,7.94812 0.0819,0.17606 0.44381,0.0893 0.46459,0.082 l 16.71416,59.15426 -54.29686,-9.07169 z m -1.6554,2.92813 0.77635,-1.37176 39.1244,6.71818 -39.90075,-5.34642 z m 30.3926,-93.726921 c 0.32643,-0.01467 0.63086,-0.04646 0.95851,-0.107589 1.29351,-0.243297 4.4466,-0.929175 4.4466,-0.929175 1.50013,-0.482927 3.29246,-0.886385 4.99676,-1.157802 l -3.35481,3.041828 c -0.44258,0.401012 -1.35097,0.778795 -1.9476,0.810583 l -3.60056,0.184613 c -0.33988,-0.689547 -0.89739,-1.315517 -1.4989,-1.842458 z m -6.38442,2.250806 c -0.56484,0.03423 -1.39376,-0.314208 -1.77521,-0.732337 l -2.09432,-2.309491 c 1.1627,0.363112 2.88289,0.764125 5.18872,0.764125 -0.16995,0.284866 -0.26898,0.61619 -0.26898,0.970744 0,0.469478 0.16995,0.896165 0.45114,1.231158 l -1.50135,0.0758 z m 127.08677,87.582135 c -0.24819,0 -0.48904,0.0305 -0.725,0.0734 -0.43525,-0.56728 -0.86927,-1.13824 -1.27273,-1.73487 -1.09178,-1.61261 -2.10654,-3.29001 -3.05038,-5.00899 -1.8718,-3.43917 -3.56877,-6.99938 -4.90018,-10.65006 -0.10148,-0.27386 -0.19929,-0.55017 -0.29465,-0.8277 l -7.20111,-21.94322 -4.32067,-13.11482 0.0159,-0.006 c 0.84359,-0.28731 1.29595,-1.21282 1.00742,-2.05274 L 250.1178,90.575807 c -0.26286,-0.77146 -1.06,-1.205483 -1.83757,-1.056325 l -1.15169,-3.463625 c 0.74579,-0.332547 1.45245,-0.638197 1.81923,-0.77635 0.98786,-0.372893 4.30355,-1.035542 4.30355,-1.035542 0.1027,0.04763 0.18706,0.07336 0.25797,0.09165 0.48659,0.309318 1.06366,0.490262 1.68107,0.490262 1.74343,0 3.15431,-1.412102 3.15431,-3.153084 0,-0.87049 -0.35455,-1.657845 -0.92429,-2.228798 l 0,0 c -0.64675,-0.864378 -1.65539,-2.642038 -1.87424,-3.151862 -0.25552,-0.594183 -1.082,-2.933016 -1.16269,-3.255782 0.0403,-0.04157 0.0782,-0.101476 0.1137,-0.176054 0.20662,-0.270195 0.3301,-0.603965 0.3301,-0.969522 0,-0.728669 -0.48415,-1.337524 -1.14557,-1.539253 -0.92184,-0.863155 -2.62126,-2.434195 -4.2791,-2.787526 -0.0428,-0.01095 -0.0916,-0.02083 -0.13571,-0.02934 -0.0624,-0.0088 -0.12471,-0.02083 -0.18706,-0.0269 -0.11737,-0.01467 -0.23352,-0.02328 -0.35455,-0.02328 -1.69697,0 -3.07362,1.375424 -3.07362,3.072392 0,0.37167 0.0697,0.722557 0.19073,1.051436 -0.12104,0.327656 -0.19073,0.680988 -0.19073,1.051435 0,1.695746 1.37665,3.07117 3.07362,3.07117 0.94018,0 1.77766,-0.420574 2.34128,-1.088113 0.19439,0.03423 0.37778,0.163828 0.54161,0.441358 0.44625,0.755566 0.82036,1.666403 0.90594,2.227576 -0.70055,0.293424 -1.26783,0.836258 -1.60405,1.516024 -1.98428,0.28242 -6.96759,0.634529 -7.70849,0.945069 -0.83625,0.348441 -2.9379,1.723865 -3.23377,1.992837 -0.29709,0.271417 -1.1578,1.589379 -0.0807,1.887694 0.49148,0.135708 1.02209,0.15527 1.45367,0.141821 l 0.50493,1.435332 c -0.0538,0.02083 -0.1137,0.0403 -0.17972,0.06602 -0.56607,0.2164 -1.13213,0.88883 -1.10645,1.212819 0.0282,0.322766 0.29586,1.07711 1.26783,1.187144 0.25675,0.0269 0.5624,0.0098 0.87538,-0.03179 l 1.18348,3.359704 c -0.70666,0.355776 -1.06855,1.192034 -0.80569,1.961049 l 0.45113,1.313072 c -1.96838,0.110034 -3.93921,0.2164 -5.90882,0.31054 l -5.27918,0.260414 -5.28163,0.229849 -5.27919,0.231071 c -1.77766,-0.260414 -3.53209,-0.05996 -5.29263,-0.0098 l -10.56081,0.452362 c -3.52109,0.139376 -7.03973,0.34355 -10.55837,0.514714 l -5.27552,0.301982 -2.63959,0.146712 -0.66021,0.03912 c -0.21884,0.01712 -0.44135,0.0068 -0.65653,0.08558 -0.21762,0.07091 -0.43158,0.202952 -0.64798,0.292202 -0.21395,0.100253 -0.43402,0.114924 -0.65531,0.123482 -3.51864,0.199284 -7.03606,0.387564 -10.55715,0.530608 -3.33158,0.14549 -6.66561,0.245743 -10.00086,0.30565 l -0.0782,-0.275085 0.13693,-0.04157 c 0.34478,-0.101476 0.53917,-0.462143 0.43892,-0.808138 l -0.36801,-1.245829 c -0.10392,-0.343551 -0.46581,-0.540389 -0.80936,-0.438913 l -0.10514,0.03179 -4.71801,-16.698263 3.31813,-0.172387 c 0.82159,-0.04039 1.94271,-0.508601 2.55035,-1.059993 l 4.39891,-3.990565 c 1.47568,-0.162606 2.76552,-0.200506 3.57366,-0.06846 1.27639,0.209064 4.81093,0.363112 5.29507,0.12226 0.28976,-0.146712 0.56607,-4.122606 -6.14356,-4.122606 -6.71085,0 -15.64193,0.07952 -16.61146,0.07952 -0.97074,0 -7.9689,-1.050213 -9.05335,-1.374202 -1.26905,-0.37656 -6.46755,-1.374202 -7.19622,-1.050213 -0.72744,0.322767 -0.68343,2.886558 0.48538,4.122606 1.16024,1.22749 3.78272,2.529558 5.32808,3.190984 l 3.34626,3.693473 c 0.54895,0.607632 1.59427,1.053881 2.42808,1.053881 0.0416,0 0.0794,-9.78e-4 0.11615,-0.002 l 4.339,-0.224959 c 0.14672,0.15038 0.24941,0.279976 0.29343,0.380229 l 0.005,0.02445 4.83293,17.105389 -1.62361,0.480481 c -0.34477,0.101476 -0.53916,0.462143 -0.43891,0.806916 l 0.36678,1.245829 c 0.1027,0.344773 0.46581,0.541611 0.81058,0.440136 l 1.59183,-0.471924 0.68588,2.425642 -39.07795,66.64022 2.47576,1.42678 -0.11981,-0.0147 -0.22496,1.65173 59.88414,8.299 0.16628,-1.24949 0.20417,0.0342 0.13815,-0.80325 1.33508,1.20793 c 1.52336,-1.38032 3.0186,-2.78631 4.49917,-4.20574 l 2.21779,-2.13466 2.1909,-2.15422 c 1.46957,-1.43167 2.90123,-2.89512 4.34757,-4.34512 1.44755,-1.45 2.87311,-2.91835 4.29988,-4.38791 5.70709,-5.87337 11.23569,-11.90812 16.81685,-17.89519 l 8.30268,-9.04357 8.23909,-9.09614 c 4.09816,-4.57985 8.18286,-9.16827 12.215,-13.80437 l 0.48537,1.41944 c 0.28975,0.8387 1.21159,1.29107 2.05397,1.00498 l 0.0196,-0.006 2.7105,7.63024 1.9097,5.38311 0.006,0.0171 0.0257,0.0685 1.98428,5.56405 2.0014,5.6044 2.00873,5.6264 c 0.01,0.0305 0.0208,0.0599 0.0305,0.0905 l 0.011,0.0282 0.66387,1.85835 c 0.13938,0.39612 0.28242,0.79102 0.42302,1.18592 l 0.16994,0.47804 0.17116,0.46948 c 0.022,0.0562 0.0403,0.11248 0.0623,0.16872 l 0.0282,0.0795 c 0.0122,0.033 0.0257,0.0636 0.0391,0.10026 0.14671,0.39367 0.29342,0.78857 0.44747,1.1847 0.72378,1.8828 1.4879,3.74849 2.29971,5.59583 0.80936,1.84491 1.6664,3.67269 2.60291,5.46991 0.93529,1.79478 1.92438,3.56877 3.05161,5.28286 0.46092,0.69565 0.95363,1.37664 1.4769,2.04663 -0.36066,0.61496 -0.58195,1.32163 -0.58195,2.08575 0,2.29971 1.86446,4.16418 4.16295,4.16418 2.29848,0 4.16295,-1.86447 4.16295,-4.16418 0,-2.29849 -1.86447,-4.16173 -4.16295,-4.16173"
           inkscape:connector-curvature="0" />
      </g>
    </g>
  </g>
</svg>
