<?xml version="1.0" encoding="UTF-8" standalone="no"?>
<!-- License Agreement at http://iconmonstr.com/license/ -->

<svg
   xmlns:dc="http://purl.org/dc/elements/1.1/"
   xmlns:cc="http://creativecommons.org/ns#"
   xmlns:rdf="http://www.w3.org/1999/02/22-rdf-syntax-ns#"
   xmlns:svg="http://www.w3.org/2000/svg"
   xmlns="http://www.w3.org/2000/svg"
   xmlns:sodipodi="http://sodipodi.sourceforge.net/DTD/sodipodi-0.dtd"
   xmlns:inkscape="http://www.inkscape.org/namespaces/inkscape"
   version="1.1"
   x="0px"
   y="0px"
   width="512px"
   height="512px"
   viewBox="0 0 512 512"
   enable-background="new 0 0 512 512"
   xml:space="preserve"
   id="svg2"
   inkscape:version="0.48.4 r9939"
   sodipodi:docname="code.svg"><metadata
   id="metadata9"><rdf:RDF><cc:Work
       rdf:about=""><dc:format>image/svg+xml</dc:format><dc:type
         rdf:resource="http://purl.org/dc/dcmitype/StillImage" /></cc:Work></rdf:RDF></metadata><defs
   id="defs7" /><sodipodi:namedview
   pagecolor="#ffffff"
   bordercolor="#666666"
   borderopacity="1"
   objecttolerance="10"
   gridtolerance="10"
   guidetolerance="10"
   inkscape:pageopacity="0"
   inkscape:pageshadow="2"
   inkscape:window-width="1858"
   inkscape:window-height="1057"
   id="namedview5"
   showgrid="false"
   inkscape:zoom="0.4609375"
   inkscape:cx="-341.69492"
   inkscape:cy="256"
   inkscape:window-x="-8"
   inkscape:window-y="-8"
   inkscape:window-maximized="1"
   inkscape:current-layer="svg2" />
<path
   id="css-code-icon"
   d="m 78.23226,256 c 27.30802,11.96637 46.70744,37.82916 46.70744,83.37857 v 53.20324 c 0,38.53171 34.55424,50.8177 64.15209,51.71633 v 56.91514 c -80.69965,0 -128.32889,-27.63845 -128.32889,-102.26845 V 339.67965 C 60.7629,301.77792 30.65552,284.80884 0,284.80884 v -57.61768 c 30.65552,0 60.7629,-16.96754 60.7629,-54.86927 v -59.26673 c 0,-74.628449 47.63078,-102.268444 128.32889,-102.268444 V 67.701853 C 159.49394,68.600489 124.9397,80.886476 124.9397,119.41973 v 53.2017 c 0,45.5494 -19.39942,71.4122 -46.70744,83.37857 z M 387.0603,172.62143 v -53.2017 c 0,-38.533254 -34.55424,-50.819241 -64.15209,-51.717877 V 10.786716 c 80.69965,0 128.32889,27.639995 128.32889,102.268444 v 59.26673 c 0,37.90173 30.10738,54.86927 60.7629,54.86927 v 57.61768 c -30.65552,0 -60.7629,16.96908 -60.7629,54.87081 v 59.26518 c 0,74.63 -47.63078,102.26845 -128.32889,102.26845 v -56.91514 c 29.59785,-0.89863 64.15209,-13.18462 64.15209,-51.71633 v -53.20324 c 0,-45.54941 19.39942,-71.4122 46.70744,-83.37857 -27.30802,-11.96637 -46.70744,-37.82917 -46.70744,-83.37857 z"
   inkscape:connector-curvature="0"
   style="fill:#ffffff" />
</svg>