<?xml version="1.0" encoding="UTF-8" standalone="no"?>
<!-- Created with Inkscape (http://www.inkscape.org/) -->

<svg
   xmlns:dc="http://purl.org/dc/elements/1.1/"
   xmlns:cc="http://creativecommons.org/ns#"
   xmlns:rdf="http://www.w3.org/1999/02/22-rdf-syntax-ns#"
   xmlns:svg="http://www.w3.org/2000/svg"
   xmlns="http://www.w3.org/2000/svg"
   xmlns:xlink="http://www.w3.org/1999/xlink"
   xmlns:sodipodi="http://sodipodi.sourceforge.net/DTD/sodipodi-0.dtd"
   xmlns:inkscape="http://www.inkscape.org/namespaces/inkscape"
   width="512"
   height="512"
   id="svg3375"
   version="1.1"
   inkscape:version="0.48.4 r9939"
   sodipodi:docname="New document 2">
  <defs
     id="defs3377">
    <linearGradient
       inkscape:collect="always"
       xlink:href="#linearGradient13315"
       id="linearGradient3144"
       gradientUnits="userSpaceOnUse"
       gradientTransform="matrix(0,121.03249,-121.03249,0,142.71147,-97.949832)"
       spreadMethod="pad"
       x1="0"
       y1="0"
       x2="1"
       y2="0" />
    <linearGradient
       x1="0"
       y1="0"
       x2="1"
       y2="0"
       id="linearGradient13315"
       gradientUnits="userSpaceOnUse"
       gradientTransform="matrix(0,-23.975632,-23.975632,0,2027.6816,85.106445)"
       spreadMethod="pad">
      <stop
         id="stop13317"
         style="stop-color:#1da7e7;stop-opacity:1"
         offset="0" />
      <stop
         id="stop13319"
         style="stop-color:#37abe7;stop-opacity:0"
         offset="1" />
    </linearGradient>
    <linearGradient
       x1="0"
       y1="0"
       x2="1"
       y2="0"
       id="linearGradient8939"
       xlink:href="#linearGradient13219"
       gradientUnits="userSpaceOnUse"
       gradientTransform="matrix(4.4594269,2.0216064,2.0216064,-4.4594269,2002.999,84.154297)"
       spreadMethod="pad" />
    <linearGradient
       x1="0"
       y1="0"
       x2="1"
       y2="0"
       id="linearGradient13219"
       gradientUnits="userSpaceOnUse"
       gradientTransform="matrix(4.4594269,2.0216064,2.0216064,-4.4594269,2002.999,84.154297)"
       spreadMethod="pad">
      <stop
         id="stop13221"
         style="stop-color:#7accec;stop-opacity:1"
         offset="0" />
      <stop
         id="stop13223"
         style="stop-color:#3fb7ed;stop-opacity:1"
         offset="1" />
    </linearGradient>
    <linearGradient
       x1="0"
       y1="0"
       x2="1"
       y2="0"
       id="linearGradient8943"
       xlink:href="#linearGradient13207"
       gradientUnits="userSpaceOnUse"
       gradientTransform="matrix(5.646286,-2.3419189,-2.3419189,-5.646286,1999.7344,86.96582)"
       spreadMethod="pad" />
    <linearGradient
       x1="0"
       y1="0"
       x2="1"
       y2="0"
       id="linearGradient13207"
       gradientUnits="userSpaceOnUse"
       gradientTransform="matrix(5.646286,-2.3419189,-2.3419189,-5.646286,1999.7344,86.96582)"
       spreadMethod="pad">
      <stop
         id="stop13209"
         style="stop-color:#97d6ee;stop-opacity:1"
         offset="0" />
      <stop
         id="stop13211"
         style="stop-color:#55c1ea;stop-opacity:1"
         offset="0.70329303" />
      <stop
         id="stop13213"
         style="stop-color:#55c1ea;stop-opacity:1"
         offset="1" />
    </linearGradient>
    <linearGradient
       inkscape:collect="always"
       xlink:href="#linearGradient13131"
       id="linearGradient3153"
       gradientUnits="userSpaceOnUse"
       gradientTransform="matrix(0,123.74243,-123.74243,0,159.46327,-104.79233)"
       spreadMethod="pad"
       x1="0"
       y1="0"
       x2="1"
       y2="0" />
    <linearGradient
       x1="0"
       y1="0"
       x2="1"
       y2="0"
       id="linearGradient13131"
       gradientUnits="userSpaceOnUse"
       gradientTransform="matrix(0,-24.512451,-24.512451,0,2031,86.461914)"
       spreadMethod="pad">
      <stop
         id="stop13133"
         style="stop-color:#168cd4;stop-opacity:1"
         offset="0" />
      <stop
         id="stop13135"
         style="stop-color:#1c87cc;stop-opacity:1"
         offset="0.5" />
      <stop
         id="stop13137"
         style="stop-color:#154b8d;stop-opacity:1"
         offset="1" />
    </linearGradient>
    <linearGradient
       inkscape:collect="always"
       xlink:href="#linearGradient13071"
       id="linearGradient3162"
       gradientUnits="userSpaceOnUse"
       gradientTransform="matrix(-23.062669,130.7947,-130.7947,-23.062669,180.10937,-109.38203)"
       spreadMethod="pad"
       x1="0"
       y1="0"
       x2="1"
       y2="0" />
    <linearGradient
       x1="0"
       y1="0"
       x2="1"
       y2="0"
       id="linearGradient13071"
       gradientUnits="userSpaceOnUse"
       gradientTransform="matrix(-4.5685425,-25.909454,-25.909454,4.5685425,2035.0898,87.371094)"
       spreadMethod="pad">
      <stop
         id="stop13073"
         style="stop-color:#38a7e4;stop-opacity:0.32941177"
         offset="0" />
      <stop
         id="stop13075"
         style="stop-color:#0e88d3;stop-opacity:1"
         offset="0.96153301" />
      <stop
         id="stop13077"
         style="stop-color:#0e88d3;stop-opacity:1"
         offset="0.96153301" />
      <stop
         id="stop13079"
         style="stop-color:#0e88d3;stop-opacity:1"
         offset="1" />
    </linearGradient>
    <linearGradient
       inkscape:collect="always"
       xlink:href="#linearGradient12995"
       id="linearGradient3165"
       gradientUnits="userSpaceOnUse"
       gradientTransform="matrix(0,-56.720619,56.720619,0,153.44887,-47.418732)"
       spreadMethod="pad"
       x1="0"
       y1="0"
       x2="1"
       y2="0" />
    <linearGradient
       x1="0"
       y1="0"
       x2="1"
       y2="0"
       id="linearGradient12995"
       gradientUnits="userSpaceOnUse"
       gradientTransform="matrix(0,11.235931,11.235931,0,2029.8086,75.09668)"
       spreadMethod="pad">
      <stop
         id="stop12997"
         style="stop-color:#05a1e6;stop-opacity:1"
         offset="0" />
      <stop
         id="stop12999"
         style="stop-color:#0495d6;stop-opacity:1"
         offset="0.87362701" />
      <stop
         id="stop13001"
         style="stop-color:#0495d6;stop-opacity:1"
         offset="1" />
    </linearGradient>
    <linearGradient
       inkscape:collect="always"
       xlink:href="#linearGradient12975"
       id="linearGradient3168"
       gradientUnits="userSpaceOnUse"
       gradientTransform="matrix(-19.137985,-108.53691,108.53691,-19.137985,-24.123729,13.962268)"
       spreadMethod="pad"
       x1="0"
       y1="0"
       x2="1"
       y2="0" />
    <linearGradient
       x1="0"
       y1="0"
       x2="1"
       y2="0"
       id="linearGradient12975"
       gradientUnits="userSpaceOnUse"
       gradientTransform="matrix(-3.7910919,21.500351,21.500351,3.7910919,1994.6328,62.9375)"
       spreadMethod="pad">
      <stop
         id="stop12977"
         style="stop-color:#165096;stop-opacity:1"
         offset="0" />
      <stop
         id="stop12979"
         style="stop-color:#0d82ca;stop-opacity:1"
         offset="1" />
    </linearGradient>
    <linearGradient
       inkscape:collect="always"
       xlink:href="#linearGradient12937"
       id="linearGradient3172"
       gradientUnits="userSpaceOnUse"
       gradientTransform="matrix(0,-100.1002,100.1002,0,-27.959229,20.356468)"
       spreadMethod="pad"
       x1="0"
       y1="0"
       x2="1"
       y2="0" />
    <linearGradient
       x1="0"
       y1="0"
       x2="1"
       y2="0"
       id="linearGradient12937"
       gradientUnits="userSpaceOnUse"
       gradientTransform="matrix(0,19.829102,19.829102,0,1993.873,61.670898)"
       spreadMethod="pad">
      <stop
         id="stop12939"
         style="stop-color:#1959a6;stop-opacity:1"
         offset="0" />
      <stop
         id="stop12941"
         style="stop-color:#05a1e6;stop-opacity:1"
         offset="0.5" />
      <stop
         id="stop12943"
         style="stop-color:#05a1e6;stop-opacity:1"
         offset="0.5" />
      <stop
         id="stop12945"
         style="stop-color:#7ec5ea;stop-opacity:1"
         offset="0.91758698" />
      <stop
         id="stop12947"
         style="stop-color:#7ec5ea;stop-opacity:1"
         offset="1" />
    </linearGradient>
    <linearGradient
       inkscape:collect="always"
       xlink:href="#linearGradient12905"
       id="linearGradient3175"
       gradientUnits="userSpaceOnUse"
       gradientTransform="matrix(0,-118.45958,118.45958,0,-34.328499,14.312468)"
       spreadMethod="pad"
       x1="0"
       y1="0"
       x2="1"
       y2="0" />
    <linearGradient
       x1="0"
       y1="0"
       x2="1"
       y2="0"
       id="linearGradient12905"
       gradientUnits="userSpaceOnUse"
       gradientTransform="matrix(0,23.465958,23.465958,0,1992.6113,62.868164)"
       spreadMethod="pad">
      <stop
         id="stop12907"
         style="stop-color:#05a1e6;stop-opacity:1"
         offset="0" />
      <stop
         id="stop12909"
         style="stop-color:#05a1e6;stop-opacity:0.54901963"
         offset="1" />
    </linearGradient>
    <linearGradient
       inkscape:collect="always"
       xlink:href="#linearGradient12825"
       id="linearGradient3179"
       gradientUnits="userSpaceOnUse"
       gradientTransform="matrix(0,-121.86516,121.86516,0,-41.999179,13.883568)"
       spreadMethod="pad"
       x1="0"
       y1="0"
       x2="1"
       y2="0" />
    <linearGradient
       x1="0"
       y1="0"
       x2="1"
       y2="0"
       id="linearGradient12825"
       gradientUnits="userSpaceOnUse"
       gradientTransform="matrix(0,24.140579,24.140579,0,1991.0918,62.953125)"
       spreadMethod="pad">
      <stop
         id="stop12827"
         style="stop-color:#318ed5;stop-opacity:1"
         offset="0" />
      <stop
         id="stop12829"
         style="stop-color:#38a7e4;stop-opacity:1"
         offset="1" />
    </linearGradient>
    <linearGradient
       inkscape:collect="always"
       xlink:href="#linearGradient4062"
       id="linearGradient3184"
       gradientUnits="userSpaceOnUse"
       gradientTransform="matrix(4.0385167,0,0,4.0385167,-3877.9953,-8424.5829)"
       x1="937.66064"
       y1="2075.9995"
       x2="959.67438"
       y2="2075.9995" />
    <linearGradient
       id="linearGradient4062">
      <stop
         id="stop4064"
         style="stop-color:#05a1e6;stop-opacity:0.24705882"
         offset="0" />
      <stop
         id="stop4066"
         style="stop-color:#05a1e6;stop-opacity:1"
         offset="1" />
    </linearGradient>
    <linearGradient
       inkscape:collect="always"
       xlink:href="#linearGradient12721"
       id="linearGradient3187"
       gradientUnits="userSpaceOnUse"
       gradientTransform="matrix(0,-119.01834,119.01834,0,173.82867,10.886168)"
       spreadMethod="pad"
       x1="0"
       y1="0"
       x2="1"
       y2="0" />
    <linearGradient
       x1="0"
       y1="0"
       x2="1"
       y2="0"
       id="linearGradient12721"
       gradientUnits="userSpaceOnUse"
       gradientTransform="matrix(0,23.576645,23.576645,0,2033.8457,63.546875)"
       spreadMethod="pad">
      <stop
         id="stop12723"
         style="stop-color:#136ab4;stop-opacity:1"
         offset="0" />
      <stop
         id="stop12725"
         style="stop-color:#59caf5;stop-opacity:0.54901963"
         offset="0.60000002" />
      <stop
         id="stop12727"
         style="stop-color:#59caf5;stop-opacity:0.23529412"
         offset="1" />
    </linearGradient>
    <linearGradient
       inkscape:collect="always"
       xlink:href="#linearGradient4097"
       id="linearGradient3192"
       gradientUnits="userSpaceOnUse"
       gradientTransform="matrix(4.0385167,0,0,4.0385167,-3877.9953,-8424.5829)"
       x1="958.72162"
       y1="2068.9573"
       x2="964.65662"
       y2="2068.9573" />
    <linearGradient
       id="linearGradient4097">
      <stop
         id="stop4099"
         style="stop-color:#33bdf2;stop-opacity:0.69803923"
         offset="0" />
      <stop
         id="stop4101"
         style="stop-color:#1dacd8;stop-opacity:1"
         offset="1" />
    </linearGradient>
    <linearGradient
       inkscape:collect="always"
       xlink:href="#linearGradient12567"
       id="linearGradient3195"
       gradientUnits="userSpaceOnUse"
       gradientTransform="matrix(0,169.52761,-169.52761,0,61.906771,-121.10513)"
       spreadMethod="pad"
       x1="0"
       y1="0"
       x2="1"
       y2="0" />
    <linearGradient
       x1="0"
       y1="0"
       x2="1"
       y2="0"
       id="linearGradient12567"
       gradientUnits="userSpaceOnUse"
       gradientTransform="matrix(0,-33.582153,-33.582153,0,2011.6748,89.693359)"
       spreadMethod="pad">
      <stop
         id="stop12569"
         style="stop-color:#124379;stop-opacity:1"
         offset="0" />
      <stop
         id="stop12571"
         style="stop-color:#1487cb;stop-opacity:1"
         offset="0.389999" />
      <stop
         id="stop12573"
         style="stop-color:#1487cb;stop-opacity:1"
         offset="0.389999" />
      <stop
         id="stop12575"
         style="stop-color:#165197;stop-opacity:1"
         offset="0.78022802" />
      <stop
         id="stop12577"
         style="stop-color:#165197;stop-opacity:1"
         offset="0.78022802" />
      <stop
         id="stop12579"
         style="stop-color:#165197;stop-opacity:1"
         offset="1" />
    </linearGradient>
    <linearGradient
       inkscape:collect="always"
       xlink:href="#linearGradient12539"
       id="linearGradient3198"
       gradientUnits="userSpaceOnUse"
       gradientTransform="matrix(0,159.42523,-159.42523,0,74.473171,-121.94303)"
       spreadMethod="pad"
       x1="0"
       y1="0"
       x2="1"
       y2="0" />
    <linearGradient
       x1="0"
       y1="0"
       x2="1"
       y2="0"
       id="linearGradient12539"
       gradientUnits="userSpaceOnUse"
       gradientTransform="matrix(0,-31.580948,-31.580948,0,2014.1641,89.859375)"
       spreadMethod="pad">
      <stop
         id="stop12541"
         style="stop-color:#166ab8;stop-opacity:1"
         offset="0" />
      <stop
         id="stop12543"
         style="stop-color:#36aee8;stop-opacity:1"
         offset="0.39999399" />
      <stop
         id="stop12545"
         style="stop-color:#36aee8;stop-opacity:1"
         offset="0.39999399" />
      <stop
         id="stop12547"
         style="stop-color:#0798dd;stop-opacity:1"
         offset="0.84616101" />
      <stop
         id="stop12549"
         style="stop-color:#0798dd;stop-opacity:1"
         offset="0.84616101" />
      <stop
         id="stop12551"
         style="stop-color:#0798dd;stop-opacity:1"
         offset="1" />
    </linearGradient>
    <linearGradient
       inkscape:collect="always"
       xlink:href="#linearGradient12439"
       id="linearGradient3203"
       gradientUnits="userSpaceOnUse"
       gradientTransform="matrix(0,-122.17805,122.17805,0,82.503771,13.947768)"
       spreadMethod="pad"
       x1="0"
       y1="0"
       x2="1"
       y2="0" />
    <linearGradient
       x1="0"
       y1="0"
       x2="1"
       y2="0"
       id="linearGradient12439"
       gradientUnits="userSpaceOnUse"
       gradientTransform="matrix(0,24.20256,24.20256,0,2015.7549,62.94043)"
       spreadMethod="pad">
      <stop
         id="stop12441"
         style="stop-color:#1c63b7;stop-opacity:1"
         offset="0" />
      <stop
         id="stop12443"
         style="stop-color:#33bdf2;stop-opacity:1"
         offset="0.5" />
      <stop
         id="stop12445"
         style="stop-color:#33bdf2;stop-opacity:0.41960785"
         offset="1" />
    </linearGradient>
    <linearGradient
       inkscape:collect="always"
       xlink:href="#linearGradient12353"
       id="linearGradient3207"
       gradientUnits="userSpaceOnUse"
       gradientTransform="matrix(0,153.55057,-153.55057,0,51.642871,-106.38473)"
       spreadMethod="pad"
       x1="0"
       y1="0"
       x2="1"
       y2="0" />
    <linearGradient
       x1="0"
       y1="0"
       x2="1"
       y2="0"
       id="linearGradient12353"
       gradientUnits="userSpaceOnUse"
       gradientTransform="matrix(0,-30.417221,-30.417221,0,2009.6416,86.777344)"
       spreadMethod="pad">
      <stop
         id="stop12355"
         style="stop-color:#0e76bc;stop-opacity:1"
         offset="0" />
      <stop
         id="stop12357"
         style="stop-color:#36aee8;stop-opacity:1"
         offset="0.360001" />
      <stop
         id="stop12359"
         style="stop-color:#36aee8;stop-opacity:1"
         offset="0.360001" />
      <stop
         id="stop12361"
         style="stop-color:#00adef;stop-opacity:1"
         offset="0.84616101" />
      <stop
         id="stop12363"
         style="stop-color:#00adef;stop-opacity:1"
         offset="0.84616101" />
      <stop
         id="stop12365"
         style="stop-color:#00adef;stop-opacity:1"
         offset="1" />
    </linearGradient>
    <linearGradient
       inkscape:collect="always"
       xlink:href="#linearGradient12325"
       id="linearGradient3210"
       gradientUnits="userSpaceOnUse"
       gradientTransform="matrix(0,149.73457,-149.73457,0,45.933971,-102.59373)"
       spreadMethod="pad"
       x1="0"
       y1="0"
       x2="1"
       y2="0" />
    <linearGradient
       x1="0"
       y1="0"
       x2="1"
       y2="0"
       id="linearGradient12325"
       gradientUnits="userSpaceOnUse"
       gradientTransform="matrix(0,-29.661301,-29.661301,0,2008.5107,86.026367)"
       spreadMethod="pad">
      <stop
         id="stop12327"
         style="stop-color:#0994dc;stop-opacity:1"
         offset="0" />
      <stop
         id="stop12329"
         style="stop-color:#66cef5;stop-opacity:1"
         offset="0.35000601" />
      <stop
         id="stop12331"
         style="stop-color:#66cef5;stop-opacity:1"
         offset="0.35000601" />
      <stop
         id="stop12333"
         style="stop-color:#127bca;stop-opacity:1"
         offset="0.84616101" />
      <stop
         id="stop12335"
         style="stop-color:#127bca;stop-opacity:1"
         offset="0.84616101" />
      <stop
         id="stop12337"
         style="stop-color:#127bca;stop-opacity:1"
         offset="1" />
    </linearGradient>
    <linearGradient
       inkscape:collect="always"
       xlink:href="#linearGradient12325"
       id="linearGradient3703"
       gradientUnits="userSpaceOnUse"
       gradientTransform="matrix(0,149.73457,-149.73457,0,45.933971,-102.59373)"
       spreadMethod="pad"
       x1="0"
       y1="0"
       x2="1"
       y2="0" />
    <linearGradient
       inkscape:collect="always"
       xlink:href="#linearGradient12353"
       id="linearGradient3705"
       gradientUnits="userSpaceOnUse"
       gradientTransform="matrix(0,153.55057,-153.55057,0,51.642871,-106.38473)"
       spreadMethod="pad"
       x1="0"
       y1="0"
       x2="1"
       y2="0" />
    <linearGradient
       inkscape:collect="always"
       xlink:href="#linearGradient12439"
       id="linearGradient3707"
       gradientUnits="userSpaceOnUse"
       gradientTransform="matrix(0,-122.17805,122.17805,0,82.503771,13.947768)"
       spreadMethod="pad"
       x1="0"
       y1="0"
       x2="1"
       y2="0" />
    <linearGradient
       inkscape:collect="always"
       xlink:href="#linearGradient12539"
       id="linearGradient3709"
       gradientUnits="userSpaceOnUse"
       gradientTransform="matrix(0,159.42523,-159.42523,0,74.473171,-121.94303)"
       spreadMethod="pad"
       x1="0"
       y1="0"
       x2="1"
       y2="0" />
    <linearGradient
       inkscape:collect="always"
       xlink:href="#linearGradient12567"
       id="linearGradient3711"
       gradientUnits="userSpaceOnUse"
       gradientTransform="matrix(0,169.52761,-169.52761,0,61.906771,-121.10513)"
       spreadMethod="pad"
       x1="0"
       y1="0"
       x2="1"
       y2="0" />
    <linearGradient
       inkscape:collect="always"
       xlink:href="#linearGradient4097"
       id="linearGradient3713"
       gradientUnits="userSpaceOnUse"
       gradientTransform="matrix(4.0385167,0,0,4.0385167,-3877.9953,-8424.5829)"
       x1="958.72162"
       y1="2068.9573"
       x2="964.65662"
       y2="2068.9573" />
    <linearGradient
       inkscape:collect="always"
       xlink:href="#linearGradient12721"
       id="linearGradient3715"
       gradientUnits="userSpaceOnUse"
       gradientTransform="matrix(0,-119.01834,119.01834,0,173.82867,10.886168)"
       spreadMethod="pad"
       x1="0"
       y1="0"
       x2="1"
       y2="0" />
    <linearGradient
       inkscape:collect="always"
       xlink:href="#linearGradient4062"
       id="linearGradient3717"
       gradientUnits="userSpaceOnUse"
       gradientTransform="matrix(4.0385167,0,0,4.0385167,-3877.9953,-8424.5829)"
       x1="937.66064"
       y1="2075.9995"
       x2="959.67438"
       y2="2075.9995" />
    <linearGradient
       inkscape:collect="always"
       xlink:href="#linearGradient12825"
       id="linearGradient3719"
       gradientUnits="userSpaceOnUse"
       gradientTransform="matrix(0,-121.86516,121.86516,0,-41.999179,13.883568)"
       spreadMethod="pad"
       x1="0"
       y1="0"
       x2="1"
       y2="0" />
    <linearGradient
       inkscape:collect="always"
       xlink:href="#linearGradient12905"
       id="linearGradient3721"
       gradientUnits="userSpaceOnUse"
       gradientTransform="matrix(0,-118.45958,118.45958,0,-34.328499,14.312468)"
       spreadMethod="pad"
       x1="0"
       y1="0"
       x2="1"
       y2="0" />
    <linearGradient
       inkscape:collect="always"
       xlink:href="#linearGradient12937"
       id="linearGradient3723"
       gradientUnits="userSpaceOnUse"
       gradientTransform="matrix(0,-100.1002,100.1002,0,-27.959229,20.356468)"
       spreadMethod="pad"
       x1="0"
       y1="0"
       x2="1"
       y2="0" />
    <linearGradient
       inkscape:collect="always"
       xlink:href="#linearGradient12975"
       id="linearGradient3725"
       gradientUnits="userSpaceOnUse"
       gradientTransform="matrix(-19.137985,-108.53691,108.53691,-19.137985,-24.123729,13.962268)"
       spreadMethod="pad"
       x1="0"
       y1="0"
       x2="1"
       y2="0" />
    <linearGradient
       inkscape:collect="always"
       xlink:href="#linearGradient12995"
       id="linearGradient3727"
       gradientUnits="userSpaceOnUse"
       gradientTransform="matrix(0,-56.720619,56.720619,0,153.44887,-47.418732)"
       spreadMethod="pad"
       x1="0"
       y1="0"
       x2="1"
       y2="0" />
    <linearGradient
       inkscape:collect="always"
       xlink:href="#linearGradient13071"
       id="linearGradient3729"
       gradientUnits="userSpaceOnUse"
       gradientTransform="matrix(-23.062669,130.7947,-130.7947,-23.062669,180.10937,-109.38203)"
       spreadMethod="pad"
       x1="0"
       y1="0"
       x2="1"
       y2="0" />
    <linearGradient
       inkscape:collect="always"
       xlink:href="#linearGradient13131"
       id="linearGradient3731"
       gradientUnits="userSpaceOnUse"
       gradientTransform="matrix(0,123.74243,-123.74243,0,159.46327,-104.79233)"
       spreadMethod="pad"
       x1="0"
       y1="0"
       x2="1"
       y2="0" />
    <linearGradient
       inkscape:collect="always"
       xlink:href="#linearGradient13207"
       id="linearGradient3733"
       gradientUnits="userSpaceOnUse"
       gradientTransform="matrix(5.646286,-2.3419189,-2.3419189,-5.646286,1999.7344,86.96582)"
       spreadMethod="pad"
       x1="0"
       y1="0"
       x2="1"
       y2="0" />
    <linearGradient
       inkscape:collect="always"
       xlink:href="#linearGradient13219"
       id="linearGradient3735"
       gradientUnits="userSpaceOnUse"
       gradientTransform="matrix(4.4594269,2.0216064,2.0216064,-4.4594269,2002.999,84.154297)"
       spreadMethod="pad"
       x1="0"
       y1="0"
       x2="1"
       y2="0" />
    <linearGradient
       inkscape:collect="always"
       xlink:href="#linearGradient13315"
       id="linearGradient3737"
       gradientUnits="userSpaceOnUse"
       gradientTransform="matrix(0,121.03249,-121.03249,0,142.71147,-97.949832)"
       spreadMethod="pad"
       x1="0"
       y1="0"
       x2="1"
       y2="0" />
  </defs>
  <sodipodi:namedview
     id="base"
     pagecolor="#ffffff"
     bordercolor="#666666"
     borderopacity="1.0"
     inkscape:pageopacity="0.0"
     inkscape:pageshadow="2"
     inkscape:zoom="0.49497475"
     inkscape:cx="311.1046"
     inkscape:cy="489.15966"
     inkscape:document-units="px"
     inkscape:current-layer="layer1"
     showgrid="false"
     inkscape:window-width="1858"
     inkscape:window-height="1057"
     inkscape:window-x="-8"
     inkscape:window-y="-8"
     inkscape:window-maximized="1" />
  <metadata
     id="metadata3380">
    <rdf:RDF>
      <cc:Work
         rdf:about="">
        <dc:format>image/svg+xml</dc:format>
        <dc:type
           rdf:resource="http://purl.org/dc/dcmitype/StillImage" />
        <dc:title></dc:title>
      </cc:Work>
    </rdf:RDF>
  </metadata>
  <g
     inkscape:label="Layer 1"
     inkscape:groupmode="layer"
     id="layer1"
     transform="translate(0,-540.36218)">
    <g
       id="g3662"
       transform="matrix(1.6310846,0,0,1.6310846,148.81444,864.74301)">
      <path
         d="m 169.43637,8.7517683 -2.7967,0 0,8.6928997 -1.1409,0 0,-8.6928997 -2.8067,0 0,-1.0346 6.7443,0 0,1.0346 z"
         id="path12245"
         style="fill:#000000;fill-opacity:1;fill-rule:nonzero;stroke:none"
         inkscape:connector-curvature="0" />
      <path
         d="m 180.88797,17.443068 -1.1356,0 0,-6.5323 c 0,-0.5149 0.04,-1.1456997 0.093,-1.8879997 l 0,0 c -0.1172,0.4443 -0.2141,0.7524 -0.3029,0.9491 l -3.3116,7.4711997 -0.5553,0 -3.3217,-7.4155 c -0.097,-0.2059997 -0.1938,-0.5402997 -0.2988,-1.0047997 l -0.04,0 c 0.04,0.3918 0.053,1.0249997 0.053,1.9033997 l 0,6.5169 -1.0904,0 0,-9.7274997 1.5043,0 2.9833,6.7894997 c 0.2261,0.5101 0.3675,0.9038 0.4394,1.1663 l 0.044,0 c 0.1979,-0.5351 0.3594,-0.9341 0.4697,-1.1966 l 3.0438,-6.7591997 1.4337,0 0,9.7274997 z"
         id="path12257"
         style="fill:#000000;fill-opacity:1;fill-rule:nonzero;stroke:none"
         inkscape:connector-curvature="0" />
      <path
         d="m 17.787071,-78.910632 c 11.3128,34.5947 15.5987,96.3085 48.6792,96.3085 l 0,0 c 2.519,0 5.0633,-0.2464 7.6177,-0.7322 l 0,0 c -30.0718,-7.0116997 -33.6358,-68.0542 -51.9858,-99.6657 l 0,0 c -1.4388,1.3076 -2.8674,2.6706 -4.3111,4.0894"
         id="path12339"
         style="fill:url(#linearGradient3703);stroke:none"
         inkscape:connector-curvature="0" />
      <path
         d="m 22.098171,-83.000032 c 18.35,31.6115 21.914,92.6540003 51.9858,99.6657 l 0,0 c 2.3625,-0.4341 4.7301,-1.0904 7.1027,-1.9183 l 0,0 c -26.9924,-13.2260997 -34.4536,-72.5015 -55.2923,-101.0388 l 0,0 c -1.2621,1.0504 -2.5291,2.1509 -3.7962,3.2914"
         id="path12367"
         style="fill:url(#linearGradient3705);stroke:none"
         inkscape:connector-curvature="0" />
      <path
         d="m 48.537471,-101.79973 c -2.514,0 -5.0635,0.2463 -7.6227,0.7322 -6.6939,1.261998 -13.4935,4.144298 -20.3489,8.505898 1.8727,1.8476 3.6545,3.9626 5.3305,6.2698 6.9716,-5.7852 13.8977,-10.0608 20.7987,-12.6305 2.5895,-0.9591 5.1693,-1.680798 7.7588,-2.155298 -1.8678,-0.475 -3.8366,-0.7221 -5.9164,-0.7221"
         id="path12379"
         style="fill:#14559a;fill-opacity:1;fill-rule:nonzero;stroke:none"
         inkscape:connector-curvature="0" />
      <path
         d="m 102.25767,2.5558683 c 2.7613,-2.19569997 5.5277,-4.6241 8.2991,-7.2741 C 99.062171,-39.151832 94.947971,-101.74883 61.635171,-101.74883 c -2.3827,0 -4.7856,0.2221 -7.1835,0.6663 30.3444,7.547198 34.2315,73.566798 47.805999,103.6383983"
         id="path12459"
         style="fill:url(#linearGradient3707);stroke:none"
         inkscape:connector-curvature="0" />
      <path
         d="m 54.452671,-101.08013 c -1.8678,-0.4745 -3.8365,-0.7216 -5.9164,-0.7216 l 13.1,0.048 c -2.3828,0 -4.7857,0.2221 -7.1836,0.6716"
         id="path12521"
         style="fill:#3092c4;fill-opacity:1;fill-rule:nonzero;stroke:none"
         inkscape:connector-curvature="0" />
      <path
         d="m 101.67587,9.8708683 c -1.3024,-1.2418 -2.538999,-2.6048 -3.755799,-4.0587 -5.6035,3.9678 -11.1867,6.9764997 -16.7344,8.9351997 1.9736,0.9644 4.0433,1.6813 6.2395,2.1255 1.701,0.3473 3.463,0.525 5.3155,0.525 6.2245,0 11.146299,-0.737 15.336199,-2.7462 -2.3068,-1.2471 -4.4221,-2.8625 -6.401,-4.7807997"
         id="path12525"
         style="fill:#1969bc;fill-opacity:1;fill-rule:nonzero;stroke:none"
         inkscape:connector-curvature="0" />
      <path
         d="m 46.692671,-98.916632 c 27.1793,14.2155 29.5418,78.5895 51.2286,104.7288003 l 0,0 c 1.4539,-1.0246 2.892599,-2.1101 4.331299,-3.2563 l 0,0 C 88.678171,-27.515732 84.796071,-93.540632 54.456771,-101.08253 l 0,0 c -2.5897,0.4846 -5.1744,1.201898 -7.7641,2.165898"
         id="path12553"
         style="fill:url(#linearGradient3709);stroke:none"
         inkscape:connector-curvature="0" />
      <path
         d="m 25.894371,-86.291432 c 20.8387,28.5373 28.2999,87.8127003 55.2923,101.0388 l 0,0 c 5.5479,-1.9587 11.1312,-4.9673997 16.7346,-8.9351997 l 0,0 C 76.234471,-20.327132 73.871971,-84.701132 46.692671,-98.916632 l 0,0 c -6.9008,2.5644 -13.8268,6.84 -20.7983,12.6252"
         id="path12581"
         style="fill:url(#linearGradient3711);stroke:none"
         inkscape:connector-curvature="0" />
      <path
         d="m 4.4543707,-79.743832 c -3.2662,7.3857 -6.603,17.093 -10.6365,29.7639 8.0215,-11.303 16.0178,-21.0407 23.9686003,-28.9307 -1.0954,-3.3673 -2.2716,-6.4718 -3.5387,-9.2385 -3.251,2.4889 -6.5273003,5.2908 -9.7934003,8.4053"
         id="path12651"
         style="fill:url(#linearGradient3713);fill-opacity:1;fill-rule:nonzero;stroke:none"
         inkscape:connector-curvature="0" />
      <path
         d="m 17.144071,-90.278632 c -0.9592,0.6865 -1.9232,1.3884 -2.8924,2.1303 1.2669,2.7664 2.438,5.8712 3.5337,9.2381 1.4434,-1.4135 2.877,-2.7814 4.3107,-4.089 -1.5395,-2.6453 -3.1751,-5.0886 -4.952,-7.2794"
         id="path12655"
         style="fill:#2b74b1;fill-opacity:1;fill-rule:nonzero;stroke:none"
         inkscape:connector-curvature="0" />
      <path
         d="m 20.565871,-92.561632 c -1.1409,0.7221 -2.2765,1.4841 -3.4226,2.2817 1.7769,2.1909 3.4125,4.6342 4.9573,7.2847 1.2672,-1.1461 2.5341,-2.2515 3.7962,-3.2966 -1.676,-2.3068 -3.4578,-4.4222 -5.3309,-6.2698"
         id="path12659"
         style="fill:#125a9e;fill-opacity:1;fill-rule:nonzero;stroke:none"
         inkscape:connector-curvature="0" />
      <path
         d="m 205.95177,-104.43413 c -15.3718,59.280198 -47.478,106.8942983 -74.3947,118.898798 0,0 -0.051,0 -0.051,0 -0.4896,0.2221 -0.9743,0.4241 -1.4538,0.6207 -0.066,0.04 -0.126,0.045 -0.1769,0.069 -0.1414,0.057 -0.2726,0.101 -0.414,0.1575 -0.066,0.04 -0.126,0.053 -0.1865,0.077 -0.227,0.081 -0.4493,0.1495 -0.6714,0.2383 -0.096,0.04 -0.1866,0.065 -0.2779,0.097 -0.101,0.04 -0.2173,0.077 -0.3332,0.1091 -0.1009,0.04 -0.2067,0.069 -0.3231,0.113 -0.096,0.04 -0.197,0.057 -0.2875,0.097 -0.1971,0.057 -0.3784,0.105 -0.5755,0.1736 -0.081,0 -0.1563,0.044 -0.2423,0.065 -0.1212,0.04 -0.2577,0.069 -0.3889,0.105 -0.091,0.04 -0.1664,0.053 -0.2625,0.073 -0.1365,0.04 -0.288,0.077 -0.4241,0.1091 -0.1817,0.04 -0.3432,0.077 -0.5149,0.1131 1.2166,0.4494 2.4837,0.6764 3.8518,0.6764 25.5234,0 51.2584,-45.741 93.8397,-121.806498 l -16.7194,0 z"
         id="path12741"
         style="fill:url(#linearGradient3715);stroke:none"
         inkscape:connector-curvature="0" />
      <path
         d="m -11.724929,-99.394032 c 0.016,0 0.036,-0.04 0.046,-0.04 0.02,0 0.051,0 0.061,-0.04 0,0 0.02,0 0.032,0 0.1413,-0.048 0.2726,-0.105 0.4139,-0.1575 0.036,0 0.055,0 0.081,-0.04 0.036,0 0.071,-0.04 0.1062,-0.045 0.1515,-0.048 0.3029,-0.105 0.4443,-0.1575 0,0 0.016,0 0.024,0 0.3384,-0.1009 0.6511997,-0.226098 0.9792997,-0.343198 0.046,0 0.091,-0.04 0.1462,-0.04 0.1365,-0.044 0.2779,-0.093 0.419,-0.1252 0.066,-0.04 0.1313,-0.04 0.1918,-0.061 0.1462,-0.044 0.288,-0.093 0.4241,-0.1252 0.061,0 0.1163,-0.04 0.1615,-0.044 0.4695,-0.1292 0.9339,-0.2504 1.4034,-0.3635 0.066,0 0.1212,-0.04 0.1918,-0.044 0.1361,-0.04 0.2626,-0.061 0.4089,-0.081 0.061,-0.04 0.1313,-0.04 0.202,-0.061 0.1361,-0.04 0.2673,-0.044 0.4139,-0.077 0.036,0 0.055,0 0.096,0 0.2827,-0.057 0.5705,-0.105 0.8532,-0.1575 0.051,0 0.1159,0 0.1716,0 0.1361,-0.04 0.2573,-0.044 0.3938,-0.069 0.075,0 0.1514,-0.04 0.2221,-0.04 0.126,0 0.2524,-0.04 0.3784,-0.057 0.066,0 0.1312,0 0.2072,-0.04 0.2976,-0.04 0.6057,-0.056 0.9187,-0.081 -0.8834,-0.085 -1.7921,-0.1414 -2.7159,-0.1414 -28.7441197,0 -68.3468197,53.333498 -86.1869697,122.402198 0,0 1.30242,0 3.43779,0 5.70945,-10.1819 10.83837,-19.81379967 15.5281,-28.8551997 12.49416,-48.9214003 37.94186,-82.2848003 60.54748,-91.1239003"
         id="path12803"
         style="fill:url(#linearGradient3717);fill-opacity:1;fill-rule:nonzero;stroke:none"
         inkscape:connector-curvature="0" />
      <path
         d="m 4.4546707,-79.743832 c 3.2663,-3.1145 6.5424003,-5.9164 9.7934003,-8.4049 -0.7419,-1.6255 -1.5092,-3.1299 -2.3323,-4.5082 -2.6299003,3.1904 -5.0328003,7.4006 -7.4611003,12.9131"
         id="path12807"
         style="fill:#0d82ca;fill-opacity:1;fill-rule:nonzero;stroke:none"
         inkscape:connector-curvature="0" />
      <path
         d="m 6.8159707,-98.989732 c 1.8779,1.575 3.5587003,3.7408 5.0986003,6.3356 0.4846,-0.5957 0.9745,-1.1461 1.4842,-1.661 -2.1352,-1.9939 -4.4424003,-3.6295 -6.9463003,-4.8612 0.101,0.056 0.2019,0.101 0.3069,0.1454 0,0 0.04,0.04 0.057,0.04"
         id="path12811"
         style="fill:#0d82ca;fill-opacity:1;fill-rule:nonzero;stroke:none"
         inkscape:connector-curvature="0" />
      <path
         d="m -72.271899,-8.2721317 c 26.20997,-50.5069003 38.62841,-82.4718003 60.54747,-91.1243003 l 0,0 c -22.60056,8.8447 -48.05331,42.2077 -60.54747,91.1243003"
         id="path12831"
         style="fill:url(#linearGradient3719);stroke:none"
         inkscape:connector-curvature="0" />
      <path
         d="m 13.397071,-94.316432 c -0.5096,0.5202 -0.9942,1.0654 -1.4841,1.6611 0.823,1.3779 1.59,2.8774 2.3375,4.5078 0.9692,-0.7419 1.9332,-1.4438 2.8924,-2.1303 -1.1861,-1.464 -2.4381,-2.8218 -3.7458,-4.0386"
         id="path12843"
         style="fill:#127bca;fill-opacity:1;fill-rule:nonzero;stroke:none"
         inkscape:connector-curvature="0" />
      <path
         d="m -60.373419,20.356068 0,0 c -0.16154,0.04 -0.32308,0.04 -0.47453,0.057 -0.0505,0 -0.0606,0 -0.0909,0 -0.1365,0 -0.27785,0.04 -0.40385,0.04 0,0 -0.0505,0 -0.0658,0 -0.32793,0.04 -0.65121,0.04 -0.9642,0.065 l -0.10096,0 c 26.52801,-0.7423 38.65363,-14.0241997 44.67103,-33.2879 4.5736,-14.6041 8.3294997,-26.9066 11.6208997,-37.2299 -11.1109997,15.6392 -22.2724997,34.2818 -33.4944997,55.1661003 -5.41162,10.0659997 -13.64009,14.2708997 -20.6974,15.1698997"
         id="path12923"
         style="fill:url(#linearGradient3721);stroke:none"
         inkscape:connector-curvature="0" />
      <path
         d="m -60.373419,20.345968 0,0 c 7.05731,-0.899 15.28579,-5.099 20.6974,-15.1698997 l 0,0 c 11.22199,-20.8791003 22.38849,-39.5269003 33.4893897,-55.1661003 l 0,0 c 4.0385,-12.6761 7.3703,-22.3782 10.6415,-29.7639 l 0,0 c -22.1259997,21.0609 -44.3378697,56.0801 -64.8282897,100.0898"
         id="path12949"
         style="fill:url(#linearGradient3723);stroke:none"
         inkscape:connector-curvature="0" />
      <path
         d="m -72.273149,-8.2709317 c -4.68953,9.04140003 -9.81844,18.6732997 -15.5281,28.8551997 2.46875,0 6.04283,0 10.00058,0 1.32262,-10.1117 3.20053,-19.75359967 5.52752,-28.8503997"
         id="path12961"
         style="fill:#05a1e6;fill-opacity:1;fill-rule:nonzero;stroke:none"
         inkscape:connector-curvature="0" />
      <path
         d="m -3.2536293,-101.57683 c -0.081,0 -0.1414,0.04 -0.212,0.04 l 0,0 c -0.1212,0.04 -0.2476,0.04 -0.3736,0.053 l 0,0 c -0.075,0 -0.1462,0 -0.2221,0.04 l 0,0 c -0.1365,0.04 -0.2625,0.044 -0.3938,0.069 l 0,0 c -0.061,0 -0.1211,0 -0.1716,0.04 l 0,0 c -0.288,0.048 -0.5705,0.101 -0.8532,0.1494 l 0,0 c -0.05,0 -0.066,0 -0.096,0 l 0,0 c -0.1462,0.04 -0.2778,0.061 -0.4139,0.081 l 0,0 c -0.071,0.04 -0.1414,0.04 -0.2072,0.056 l 0,0 c -0.1361,0.04 -0.2726,0.057 -0.4038,0.081 l 0,0 c -0.071,0.04 -0.126,0.04 -0.1919,0.044 l 0,0 c -0.4694,0.1131 -0.9339,0.2343 -1.4034,0.3635 l 0,0 c -0.05,0 -0.1009,0.04 -0.1615,0.048 l 0,0 c -0.1413,0.04 -0.2778,0.081 -0.424,0.1252 l 0,0 c -0.061,0.04 -0.1313,0.04 -0.1919,0.056 l 0,0 c -0.1413,0.04 -0.2827,0.081 -0.419,0.1252 l 0,0 c -0.055,0 -0.1009,0.04 -0.1514,0.04 l 0,0 c -0.3231,0.1211 -0.6410997,0.242298 -0.9742997,0.343298 l 0,0 c 0,0 0,0 0,0 l 0,0 c -0.1413,0.044 -0.2928,0.1009 -0.4442,0.1534 l 0,0 c -0.061,0.04 -0.1163,0.049 -0.1866,0.077 l 0,0 c -0.1414,0.044 -0.2827,0.101 -0.414,0.1535 l 0,0 c -0.05,0.04 -0.1009,0.044 -0.1361,0.065 l 0,0 c -21.91901,8.6525 -34.33745,40.6174 -60.54742,91.1243003 l 0,0 c -2.3272,9.09680003 -4.21016,18.7386997 -5.52772,28.8499997 l 0,0 1.40338,0 c 3.9527,0 5.06834,-0.04 9.61672,-0.04 l 0,0 0.23221,0 0.67645,0 0.23222,0 0.0658,0 0.23221,0 0.13125,0 0.0909,0 0.18173,0 0.5654,0 0.56539,0 0.47452,0 0.12601,0 c 0.2726,0 0.55024,0 0.83294,0 l 0,0 c 0.31298,-0.04 0.63607,-0.04 0.9642,-0.065 l 0,0 c 0,0 0.0505,0 0.0606,0 l 0,0 c 0.1365,0 0.2726,-0.04 0.40385,-0.04 l 0,0 c 0.0505,0 0.0553,0 0.0957,0 l 0,0 c 0.14619,0 0.31298,-0.04 0.47452,-0.057 l 0,0 0,0 c 20.49043,-44.0097 42.70224,-79.0289 64.8282397,-100.0898 l 0,0 c 2.4332,-5.5125 4.8311,-9.7227 7.4562003,-12.9079 l 0,0 c -1.5347,-2.5947 -3.2157003,-4.7654 -5.0936003,-6.3408 l 0,0 c 0,0 -0.051,0 -0.055,-0.04 l 0,0 c -0.1062,-0.044 -0.2067,-0.097 -0.3129,-0.1494 l 0,0 c -0.1063,-0.057 -0.1971,-0.101 -0.3078,-0.1575 l 0,0 c -0.096,-0.04 -0.2071,-0.093 -0.3029,-0.1454 l 0,0 c -0.1312,-0.04 -0.2374,-0.097 -0.3533,-0.1495 l 0,0 c -0.096,-0.04 -0.1818,-0.081 -0.2779,-0.1211 l 0,0 c -0.1971,-0.077 -0.3937,-0.1575 -0.5805,-0.2423 l 0,0 c -0.086,-0.04 -0.1664,-0.061 -0.2476,-0.093 l 0,0 c -0.1361,-0.049 -0.2928,-0.1131 -0.4341,-0.1737 l 0,0 c -0.071,-0.04 -0.1515,-0.048 -0.2322,-0.077 l 0,0 c -0.2068,-0.069 -0.4089,-0.1413 -0.6008,-0.206 l 0,0 c -0.05,0 -0.05,0 -0.05,0 l 0,0 c -0.2323,-0.077 -0.4594,-0.1332 -0.6967,-0.1979 l 0,0 c -0.055,-0.04 -0.101,-0.04 -0.1563,-0.048 l 0,0 c -0.2072,-0.057 -0.3889,-0.1131 -0.5856,-0.1656 l 0,0 c -0.05,0 -0.096,-0.04 -0.1361,-0.04 l 0,0 c -0.4745,-0.1252 -0.96419999,-0.2261 -1.45889999,-0.319 l 0,0 c -0.051,0 -0.1009,-0.04 -0.1514,-0.04 l 0,0 c -0.212,-0.04 -0.419,-0.077 -0.631,-0.101 l 0,0 c -0.051,-0.04 -0.081,-0.04 -0.126,-0.04 l 0,0 c -0.25240001,-0.04 -0.49980001,-0.069 -0.74720001,-0.097 l 0,0 c -0.05,0 -0.086,0 -0.1312,0 l 0,0 c -0.2019,-0.04 -0.3885,-0.044 -0.5755,-0.065 l 0,0 c -0.3182,0.04 -0.6209,0.057 -0.9188,0.085"
         id="path12981"
         style="fill:url(#linearGradient3725);stroke:none"
         inkscape:connector-curvature="0" />
      <path
         d="m 145.90897,-71.616332 c -5.0431,16.1541 -9.1271,29.4812 -12.6809,40.4458 l 0,0 c 13.8369,-19.0416 27.4669,-42.9953 40.4459,-70.638498 l 0,0 c -15.1396,4.754898 -23.2166,15.639098 -27.765,30.192698"
         id="path13003"
         style="fill:url(#linearGradient3727);stroke:none"
         inkscape:connector-curvature="0" />
      <path
         d="m 133.66717,13.455068 c -0.7067,0.3594 -1.4134,0.7015 -2.1101,1.0096 26.9167,-12.0044997 59.0229,-59.6186 74.3947,-118.898798 l -3.1149,0 c -35.3168,63.086498 -46.6751,105.31929833 -69.1697,117.889198"
         id="path13093"
         style="fill:url(#linearGradient3729);stroke:none"
         inkscape:connector-curvature="0" />
      <path
         d="m 116.09097,8.1548683 c 5.8558,-7.1481 10.6261,-19.2988003 17.1386,-39.3250003 -7.512,10.3184 -15.0737,19.1882 -22.6411,26.4220003 0,0.04 0,0.04 -0.04,0.065 1.651,4.94720003 3.463,9.3136 5.5279,12.8372"
         id="path13097"
         style="fill:#079ae1;fill-opacity:1;fill-rule:nonzero;stroke:none"
         inkscape:connector-curvature="0" />
      <path
         d="m 116.09097,8.1548683 c -1.9942,2.4332997 -4.104,4.2860997 -6.4516,5.6591997 -0.5149,0.2989 -1.0346,0.5804 -1.5649,0.838 2.4789,1.3376 5.1843,2.2313 8.2131,2.5895 l 0,0 0,0 c 0.4439,0.044 0.8833,0.085 1.3429,0.1171 l 0.081,0 c 0.206,0 0.4241,0 0.6462,0.04 l 0.089,0 c 0.2222,0 0.4447,0 0.6615,0 0.2383,0 0.4746,0 0.712,0 0.077,0 0.1495,0 0.2222,0 0.1615,0 0.3351,0 0.5048,0 0.081,0 0.1655,0 0.2463,-0.04 0.1575,0 0.3231,0 0.4846,-0.04 0.04,0 0.04,0 0.057,0 0.065,0 0.1211,0 0.1817,0 0.1656,0 0.3473,-0.04 0.525,-0.057 0,0 0.04,0 0.04,0 0.053,0 0.109,-0.04 0.1615,-0.04 0.1858,-0.04 0.3797,-0.057 0.5606,-0.085 0.061,0 0.105,0 0.1656,0 0.2059,-0.04 0.4188,-0.065 0.6308,-0.105 l 0.04,0 c 0.04,0 0.044,0 0.061,0 0.4241,-0.081 0.838,-0.1615 1.2568,-0.2665 -3.4731,-1.2722 -6.3808,-4.2708 -8.8847,-8.5414997"
         id="path13101"
         style="fill:#1969bc;fill-opacity:1;fill-rule:nonzero;stroke:none"
         inkscape:connector-curvature="0" />
      <path
         d="m 66.466871,17.398668 c 2.5192,0 5.0635,-0.2463 7.6178,-0.737 2.3626,-0.4289 4.73,-1.0856 7.1026,-1.9135 1.974,0.9644 4.0437,1.6813 6.2346,2.1255 1.7011,0.3473 3.4679,0.525 5.3208,0.525 l -26.2758,0 z"
         id="path13105"
         style="fill:#1e5cb3;fill-opacity:1;fill-rule:nonzero;stroke:none"
         inkscape:connector-curvature="0" />
      <path
         d="m 92.743071,17.398668 c 6.2193,0 11.146299,-0.737 15.331399,-2.7462 2.4785,1.3376 5.1843,2.2313 8.2131,2.5899 l 0,0 0,0 c 0.4443,0.044 0.8837,0.085 1.3429,0.1171 l 0.081,0 c 0.206,0 0.4241,0 0.6462,0.04 l 0.093,0 c 0.2221,0 0.4442,0 0.6615,0 l -26.386899,0 z"
         id="path13109"
         style="fill:#1e5cb3;fill-opacity:1;fill-rule:nonzero;stroke:none"
         inkscape:connector-curvature="0" />
      <path
         d="m 119.12787,17.398668 c 0.2423,0 0.4798,0 0.7169,0 0.069,0 0.1494,0 0.2221,0 0.1615,0 0.3271,0 0.5,0 0.085,0 0.1655,0 0.2463,-0.04 0.1575,0 0.3231,0 0.4899,-0.04 0.04,0 0.04,0 0.053,0 0.065,0 0.1252,0 0.1858,0 0.1655,0 0.3473,-0.04 0.5201,-0.056 0,0 0.04,0 0.044,0 0.053,0 0.105,-0.04 0.1575,-0.04 0.1858,-0.04 0.3797,-0.056 0.5602,-0.085 0.061,0 0.109,0 0.1736,-0.04 0.206,-0.04 0.4192,-0.061 0.6313,-0.1009 l 0.04,0 c 0.04,0 0.044,0 0.061,0 0.4241,-0.081 0.838,-0.1616 1.2568,-0.2666 l 0,0 c 1.2164,0.4491 2.4837,0.6765 3.8515,0.6765 l -9.7025,0.04 z"
         id="path13113"
         style="fill:#1d60b5;fill-opacity:1;fill-rule:nonzero;stroke:none"
         inkscape:connector-curvature="0" />
      <path
         d="m 110.56467,-4.6823317 c 0,0 0,-0.04 0,-0.04 -2.7713,2.6501 -5.5377,5.07850003 -8.2992,7.2742 -1.4438,1.1461 -2.882299,2.2313 -4.336099,3.2563 1.2164,1.4538 2.453399,2.8168 3.755799,4.0587 1.9789,1.9178997 4.0938,3.5336997 6.401,4.7803997 0.525,-0.2585 1.05,-0.5404 1.5597,-0.838 2.3524,-1.3731 4.4626,-3.2256 6.4568,-5.6587997 -2.0649,-3.5236 -3.877,-7.89049997 -5.5279,-12.8376"
         id="path13117"
         style="fill:#175fab;fill-opacity:1;fill-rule:nonzero;stroke:none"
         inkscape:connector-curvature="0" />
      <path
         d="m 192.97287,-104.43413 -13.0949,0 c -0.4394,0 -0.8736,0 -1.3025,0 l 0,0 c -0.4192,0 -0.823,0 -1.2317,0 l 0,0 -0.048,0 c -0.8481,0.04 -1.6707,0.069 -2.4837,0.1212 l 0,0 c -0.3836,0.8231 -0.7774,1.6461 -1.1562,2.474 l 0,0 c -12.9786,27.643198 -26.6086,51.596898 -40.4455,70.638498 l 0,0 c -6.5071,20.0258 -11.2826,32.17690033 -17.1385,39.3251003 l 0,0 c 2.5039,4.2706997 5.4167,7.2740997 8.8797,8.5462997 l 0,0 c 0.101,-0.04 0.1817,-0.04 0.2726,-0.061 l 0,0 c 0,0 0.05,0 0.056,0 l 0,0 c 0.061,0 0.126,-0.04 0.1919,-0.04 l 0,0 c 0.1413,-0.04 0.2928,-0.065 0.4341,-0.109 l 0,0 c 0.091,-0.04 0.1664,-0.044 0.2577,-0.073 l 0,0 c 0.1312,-0.04 0.2673,-0.069 0.3885,-0.101 l 0,0 c 0.081,-0.04 0.1615,-0.053 0.2423,-0.069 l 0,0 c 0.2019,-0.065 0.3836,-0.1131 0.5755,-0.1737 l 0,0 c 0.091,-0.04 0.187,-0.073 0.2879,-0.097 l 0,0 c 0.1111,-0.04 0.2221,-0.069 0.3231,-0.1171 l 0,0 c 0.1163,-0.04 0.2322,-0.061 0.3332,-0.105 l 0,0 c 0.091,-0.04 0.1866,-0.065 0.2726,-0.101 l 0,0 c 0.2269,-0.081 0.4493,-0.1494 0.6764,-0.2383 l 0,0 c 0.061,0 0.1212,-0.056 0.187,-0.069 l 0,0 c 0.1361,-0.057 0.2775,-0.101 0.414,-0.1616 l 0,0 c 0.05,-0.04 0.111,-0.044 0.1764,-0.065 l 0,0 c 0.4746,-0.1979 0.9642,-0.3998 1.4539,-0.6207 l 0,0 c 0,0 0.051,0 0.051,0 l 0,0 c 0.6966,-0.3069 1.4034,-0.6514 2.1051,-1.0096 l 0,0 c 22.4996,-12.56989967 33.8581,-54.8027 69.1749,-117.889198 l 0,0 -9.8641,0 z"
         id="path13139"
         style="fill:url(#linearGradient3731);stroke:none"
         inkscape:connector-curvature="0" />
      <path
         d="m -2.3338293,-101.66203 c 0.056,0 0.1062,0 0.1615,0.04 0.1361,0 0.2726,0 0.4089,0.044 0.051,0 0.096,0 0.1365,0 0.2472,0.04 0.4947,0.061 0.74710001,0.097 0.046,0 0.086,0 0.126,0.04 0.2068,0.04 0.419,0.073 0.631,0.105 0.046,0 0.1063,0.04 0.1567,0.04 0.4847,0.097 0.97939999,0.1979 1.45389999,0.3231 0.045,0 0.091,0.04 0.1313,0.04 0.2019,0.048 0.3836,0.109 0.5855,0.1655 0.061,0 0.1058,0.04 0.1616,0.049 0.2374,0.061 0.4594,0.1212 0.6916,0.1979 0.01,0 0.024,0 0.051,0.04 0.1966,0.06 0.3986,0.1373 0.6057,0.2059 0.081,0.04 0.1563,0.057 0.2322,0.077 0.1414,0.061 0.2981,0.1211 0.4342,0.1777 0.081,0 0.1615,0.056 0.2471,0.085 0.1866,0.085 0.3837,0.1615 0.5755,0.2423 0.101,0.04 0.1866,0.085 0.2827,0.1211 0.1111,0.057 0.227,0.1091 0.3482,0.1495 0.1009,0.048 0.212,0.1009 0.3077,0.1453 0.1062,0.057 0.2068,0.101 0.3081,0.1575 2.5039,1.2318 4.8109003,2.8726 6.9463003,4.8616 0.7875,-0.8279 1.6103,-1.5702 2.4635,-2.2365 -4.6696,-3.3116 -9.9600003,-5.1996 -16.06320029,-5.1996 -0.7068,0 -1.41350001,0.04 -2.13030001,0.093"
         id="path13231"
         style="fill:#7dcbec;fill-opacity:1;fill-rule:nonzero;stroke:none"
         inkscape:connector-curvature="0" />
      <path
         d="m 13.397171,-94.316432 c 1.3075,1.2164 2.5594,2.5746 3.7457,4.0386 1.1459,-0.7976 2.2818,-1.565 3.4227,-2.2818 -1.4943,-1.4943 -3.0693,-2.8371 -4.71,-3.9933 -0.8531,0.6615 -1.6709,1.4086 -2.4584,2.2365"
         id="path13235"
         style="fill:#5ec5ed;fill-opacity:1;fill-rule:nonzero;stroke:none"
         inkscape:connector-curvature="0" />
      <g
         transform="matrix(5.0481458,0,0,-5.0481458,-10093.321,331.68007)"
         id="g13243">
        <path
           d="m 1998.949,85.842 c 0.142,0.012 0.282,0.017 0.422,0.017 1.209,0 2.257,-0.374 3.182,-1.029 0.976,0.77 2.156,1.039 3.795,1.039 l -7.937,0 c 0.183,0 0.362,-0.011 0.538,-0.027"
           id="path13245"
           style="fill:url(#linearGradient3733);stroke:none"
           inkscape:connector-curvature="0" />
      </g>
      <g
         transform="matrix(5.0481458,0,0,-5.0481458,-10093.321,331.68007)"
         id="g13253">
        <path
           d="m 2006.348,85.869 c -1.639,0 -2.819,-0.269 -3.795,-1.039 0.324,-0.229 0.636,-0.495 0.932,-0.791 1.359,0.864 2.705,1.436 4.032,1.686 0.506,0.095 1.011,0.144 1.509,0.144 l -2.678,0 z"
           id="path13255"
           style="fill:url(#linearGradient3735);stroke:none"
           inkscape:connector-curvature="0" />
      </g>
      <path
         d="m 133.22807,-31.160432 c 3.5589,-10.9747 7.6327,-24.2965 12.6859,-40.4559 4.5535,-14.5588 12.6154,-25.4426 27.7547,-30.192698 0.3999,-0.813 0.7775,-1.651 1.1664,-2.474 -24.6806,1.4793 -36.2156,14.033798 -42.021,32.626398 -10.1518,32.4595 -16.3005,53.5002 -22.2219,66.9081003 7.5621,-7.2290003 15.1242,-16.1036003 22.6359,-26.4119003"
         id="path13333"
         style="fill:url(#linearGradient3737);stroke:none"
         inkscape:connector-curvature="0" />
    </g>
  </g>
</svg>
