<?xml version="1.0" encoding="UTF-8" standalone="no"?>
<!-- Created with Inkscape (http://www.inkscape.org/) -->

<svg
   xmlns:dc="http://purl.org/dc/elements/1.1/"
   xmlns:cc="http://creativecommons.org/ns#"
   xmlns:rdf="http://www.w3.org/1999/02/22-rdf-syntax-ns#"
   xmlns:svg="http://www.w3.org/2000/svg"
   xmlns="http://www.w3.org/2000/svg"
   xmlns:sodipodi="http://sodipodi.sourceforge.net/DTD/sodipodi-0.dtd"
   xmlns:inkscape="http://www.inkscape.org/namespaces/inkscape"
   id="svg2"
   version="1.1"
   inkscape:version="0.48.4 r9939"
   width="512"
   height="512"
   sodipodi:docname="js.png">
  <metadata
     id="metadata8">
    <rdf:RDF>
      <cc:Work
         rdf:about="">
        <dc:format>image/svg+xml</dc:format>
        <dc:type
           rdf:resource="http://purl.org/dc/dcmitype/StillImage" />
        <dc:title></dc:title>
      </cc:Work>
    </rdf:RDF>
  </metadata>
  <defs
     id="defs6" />
  <sodipodi:namedview
     pagecolor="#ffffff"
     bordercolor="#666666"
     borderopacity="1"
     objecttolerance="10"
     gridtolerance="10"
     guidetolerance="10"
     inkscape:pageopacity="0"
     inkscape:pageshadow="2"
     inkscape:window-width="1858"
     inkscape:window-height="1057"
     id="namedview4"
     showgrid="false"
     inkscape:zoom="0.23046875"
     inkscape:cx="-6.5368079"
     inkscape:cy="512.90583"
     inkscape:window-x="-8"
     inkscape:window-y="-8"
     inkscape:window-maximized="1"
     inkscape:current-layer="svg2" />
  <path
     style="fill:#000000"
     d="M 88.986513,436.50948 C 49.528423,430.54627 21.925693,411.40879 2.7886528,376.74693 L 2.8083305e-6,371.69599 29.281873,353.75028 c 16.10503,-9.87014 29.58497,-17.9457 29.95542,-17.9457 0.37044,0 2.57551,3.18721 4.90015,7.08269 7.72331,12.94223 15.88116,21.74251 24.09065,25.98781 6.341,3.27905 19.675177,4.76113 28.543067,3.1725 11.0967,-1.98791 19.6063,-7.99388 24.2165,-17.09168 4.66798,-9.21174 4.49176,-3.84162 4.79972,-146.29811 l 0.28068,-129.807551 36.45802,0 36.45801,0 -6e-4,127.146781 c -3.8e-4,80.39283 -0.28562,130.22178 -0.77558,135.5092 -3.20653,34.60241 -15.07965,58.66222 -37.17802,75.33803 -6.9196,5.22163 -21.50016,12.7917 -29.70537,15.42269 -2.71779,0.87146 -9.04662,2.31441 -14.06407,3.20657 -11.90968,2.11766 -37.484847,2.66651 -48.273937,1.03597 z m 283.942117,0.33466 C 352.63,434.74927 332.31837,428.989 315.48504,420.55345 c -15.17581,-7.60492 -25.27693,-15.46954 -36.84352,-28.68601 -9.23865,-10.55645 -13.42115,-16.19957 -17.42728,-23.51365 l -2.78347,-5.08167 7.07445,-4.13373 c 3.89088,-2.27356 16.14,-9.3503 27.22021,-15.72608 11.0802,-6.37579 21.21918,-12.23935 22.53094,-13.03014 l 2.38519,-1.4378 5.20158,7.42126 c 7.04267,10.04788 18.77044,21.60505 26.72408,26.33531 15.05449,8.95339 32.8989,12.13419 51.86966,9.24589 13.32042,-2.02803 22.65128,-6.35662 29.51181,-13.69056 6.97137,-7.45242 9.68307,-17.28564 7.83802,-28.42257 -1.06963,-6.45643 -3.25853,-10.73448 -8.25188,-16.12795 -7.69502,-8.31155 -17.78459,-13.89725 -50.65642,-28.044 -31.11428,-13.39037 -45.56196,-21.05736 -60.05464,-31.86937 -19.01515,-14.18588 -30.66841,-31.98718 -36.56483,-55.8559 -7.11254,-28.79157 -1.9118,-59.61164 13.78933,-81.71682 5.03683,-7.09123 17.09643,-18.955678 23.46335,-23.083597 21.66315,-14.045101 42.35732,-19.378971 72.18273,-18.60493 34.46571,0.894459 57.11722,9.866347 77.28867,30.612697 8.11641,8.34773 8.97546,9.39927 15.74187,19.26845 l 5.43763,7.93115 -3.24074,2.06786 c -1.78249,1.13733 -14.47474,9.28519 -28.20515,18.10638 -13.73033,8.82119 -25.20798,16.03852 -25.50591,16.03852 -0.29785,0 -1.25117,-1.45392 -2.11835,-3.23093 -2.57434,-5.27502 -8.48657,-12.56554 -13.441,-16.57437 -8.74663,-7.07719 -20.22086,-11.28241 -30.89845,-11.324 -8.60972,-0.0335 -20.32182,4.11582 -26.28088,9.31078 -6.01646,5.24498 -9.9918,15.73893 -9.23477,24.37749 0.71575,8.16684 2.07996,12.5683 5.39847,17.41756 6.27737,9.17307 17.29463,15.647 51.40334,30.20563 39.66379,16.92971 58.60436,28.1621 74.93191,44.43715 19.70475,19.64139 27.94736,41.11254 28.02786,73.00919 0.038,15.03908 -0.85509,21.03848 -4.97031,33.38915 -12.35578,37.08253 -47.05389,61.20931 -96.31614,66.97182 -10.24807,1.19877 -27.72264,1.33682 -37.78377,0.29848 z"
     id="path2987"
     inkscape:connector-curvature="0" />
</svg>
