<?xml version="1.0" encoding="UTF-8" standalone="no"?>
<!-- Created with Inkscape (http://www.inkscape.org/) -->

<svg
   xmlns:dc="http://purl.org/dc/elements/1.1/"
   xmlns:cc="http://creativecommons.org/ns#"
   xmlns:rdf="http://www.w3.org/1999/02/22-rdf-syntax-ns#"
   xmlns:svg="http://www.w3.org/2000/svg"
   xmlns="http://www.w3.org/2000/svg"
   xmlns:sodipodi="http://sodipodi.sourceforge.net/DTD/sodipodi-0.dtd"
   xmlns:inkscape="http://www.inkscape.org/namespaces/inkscape"
   width="768"
   height="512"
   id="svg2993"
   version="1.1"
   inkscape:version="0.48.4 r9939"
   sodipodi:docname="New document 2">
  <defs
     id="defs2995" />
  <sodipodi:namedview
     id="base"
     pagecolor="#ffffff"
     bordercolor="#666666"
     borderopacity="1.0"
     inkscape:pageopacity="0.0"
     inkscape:pageshadow="2"
     inkscape:zoom="0.35"
     inkscape:cx="-161.03423"
     inkscape:cy="273.74829"
     inkscape:document-units="px"
     inkscape:current-layer="layer1"
     showgrid="false"
     inkscape:window-width="1858"
     inkscape:window-height="1057"
     inkscape:window-x="-8"
     inkscape:window-y="-8"
     inkscape:window-maximized="1" />
  <metadata
     id="metadata2998">
    <rdf:RDF>
      <cc:Work
         rdf:about="">
        <dc:format>image/svg+xml</dc:format>
        <dc:type
           rdf:resource="http://purl.org/dc/dcmitype/StillImage" />
        <dc:title></dc:title>
      </cc:Work>
    </rdf:RDF>
  </metadata>
  <g
     inkscape:label="Layer 1"
     inkscape:groupmode="layer"
     id="layer1"
     transform="translate(0,-540.36218)">
    <path
       style="fill:#000000"
       d=""
       id="path3012"
       inkscape:connector-curvature="0" />
    <path
       style="fill:#000000;fill-opacity:1;stroke:none"
       d="m 85.481662,888.16051 c -6.338015,-1.0245 -5.978881,-0.53862 -5.978881,-8.08878 0,-6.23035 0.146654,-6.8513 1.49472,-6.32902 3.731275,1.44561 9.703646,1.50782 13.289309,0.13844 5.88676,-2.24816 8.72633,-5.98079 14.30977,-18.8102 l 5.09117,-11.6983 -18.373674,-46.97073 c -10.105521,-25.8339 -18.373672,-47.35394 -18.373672,-47.82231 0,-0.52436 3.188426,-0.75765 8.297746,-0.60711 l 8.297738,0.24446 13.566232,38.86272 c 7.46142,21.3745 13.75128,39.43925 13.97748,40.14391 0.2262,0.70465 1.27935,-1.40931 2.34035,-4.69769 3.10415,-9.62086 26.34659,-72.49791 27.23143,-73.66835 1.21302,-1.60456 15.11811,-1.48279 15.11811,0.13239 0,1.81818 -44.18499,112.92516 -47.24618,118.80462 -3.86361,7.42059 -13.50077,16.87589 -18.94857,18.59097 -4.829384,1.52039 -10.921368,2.28766 -14.093078,1.77498 z m 87.120828,-70.75937 0,-69.61125 7.68713,0 7.68714,0 0,8.66941 0,8.66941 2.41331,-3.33148 c 3.97027,-5.4808 11.00724,-11.22658 16.20524,-13.23178 6.67681,-2.57569 17.66631,-3.13358 24.95312,-1.2668 13.05771,3.34523 22.30793,13.00858 26.31943,27.49489 6.80056,24.55816 -0.83276,52.67003 -17.36237,63.94189 -7.33719,5.00336 -13.58366,6.78675 -23.69592,6.76527 -7.98669,-0.017 -8.58688,-0.1531 -14.91016,-3.38205 -4.87819,-2.49101 -7.54041,-4.5367 -10.25557,-7.88052 l -3.66708,-4.51616 0,28.64521 0,28.64521 -7.68714,0 -7.68713,0 0,-69.61125 z m 52.32921,13.60187 c 8.45086,-2.8795 15.71476,-12.49729 18.16241,-24.04799 1.47403,-6.95611 1.61172,-18.66807 0.29646,-25.21723 -1.30928,-6.51936 -5.69876,-14.15117 -10.06445,-17.49862 -7.41489,-5.68546 -18.79816,-6.77515 -28.2591,-2.70515 -5.56995,2.39612 -12.07293,9.46572 -14.66207,15.93959 -1.78281,4.45774 -1.96478,6.28068 -1.98208,19.85558 -0.0172,13.54015 0.15468,15.32313 1.82662,18.94081 3.25003,7.0323 10.03333,13.30942 16.51251,15.2803 3.80849,1.15849 14.07067,0.84938 18.1697,-0.54729 z m 396.94094,-13.60187 0,-69.61125 7.68713,0 7.68712,0 0,8.66941 0,8.66941 2.41333,-3.33148 c 3.97028,-5.4808 11.00724,-11.22658 16.20524,-13.23178 6.67679,-2.57569 17.66632,-3.13358 24.95311,-1.2668 13.05773,3.34523 22.30795,13.00858 26.31946,27.49489 6.80053,24.55816 -0.83279,52.67003 -17.36239,63.94189 -7.33719,5.00336 -13.58365,6.78675 -23.69592,6.76527 -7.98667,-0.017 -8.58687,-0.1531 -14.91016,-3.38205 -4.87821,-2.49101 -7.54039,-4.5367 -10.25556,-7.88052 l -3.66711,-4.51616 0,28.64521 0,28.64521 -7.68712,0 -7.68713,0 0,-69.61125 z m 52.3292,13.60187 c 8.45087,-2.8795 15.71478,-12.49729 18.16242,-24.04799 1.47404,-6.95611 1.61172,-18.66807 0.29645,-25.21723 -1.30927,-6.51936 -5.69877,-14.15117 -10.06443,-17.49862 -7.41492,-5.68546 -18.79817,-6.77515 -28.2591,-2.70515 -5.56996,2.39612 -12.07293,9.46572 -14.66209,15.93959 -1.78281,4.45774 -1.96478,6.28068 -1.98206,19.85558 -0.0172,13.54015 0.15467,15.32313 1.8266,18.94081 3.25003,7.0323 10.03335,13.30942 16.51251,15.2803 3.80852,1.15849 14.07069,0.84938 18.1697,-0.54729 z m -372.19929,14.1483 c -16.4075,-2.95825 -27.08139,-12.40482 -32.32057,-28.60429 -3.60573,-11.14882 -3.46425,-28.85984 0.3214,-40.23572 4.79512,-14.40934 17.22432,-26.01032 31.46531,-29.36863 6.49251,-1.53106 18.87188,-0.70671 25.11951,1.67273 6.34822,2.41775 13.98082,9.42047 17.53409,16.08709 3.52665,6.61667 5.18188,13.85294 5.85123,25.58016 l 0.54845,9.60891 -33.96704,0 -33.96705,0 0.61174,4.89621 c 1.77489,14.20574 9.72316,24.17571 21.34722,26.77707 2.56495,0.574 7.87373,0.82618 12.48921,0.59325 9.03074,-0.45574 14.75411,-2.28864 21.94028,-7.02635 l 4.51702,-2.97798 -0.24639,7.44613 -0.24638,7.44614 -5.12475,2.7403 c -2.81862,1.50716 -7.62307,3.31365 -10.67657,4.01442 -7.20592,1.65374 -19.77771,2.3276 -25.19671,1.35056 z m 31.73404,-64.08288 c -1.0973,-10.49833 -6.91138,-18.37167 -15.44715,-20.91824 -15.30975,-4.56755 -29.69043,4.62055 -34.243,21.87853 l -1.10711,4.19683 25.66814,0 25.66814,0 -0.53902,-5.15712 z m 46.28173,63.68212 c -8.24885,-1.34515 -16.17008,-3.46225 -19.72169,-5.27098 -2.34715,-1.19535 -2.34885,-1.20301 -2.34885,-10.57502 l 0,-9.3788 3.44976,2.49898 c 7.98128,5.78161 25.59265,10.11985 37.37422,9.20646 16.4274,-1.27357 23.77766,-8.07143 23.10612,-21.36964 -0.54578,-10.80801 -5.06726,-15.12898 -28.66986,-27.39842 -21.59706,-11.2269 -29.49109,-17.86844 -33.23551,-27.96234 -1.90271,-5.12915 -1.93727,-16.21067 -0.0676,-21.6581 5.99498,-17.46635 28.2619,-27.38768 55.0663,-24.53555 5.04419,0.53673 11.18913,1.58332 13.65544,2.32576 l 4.48415,1.34989 0,8.89035 0,8.89036 -5.41863,-2.53568 c -8.17135,-3.82383 -16.46723,-5.30731 -26.88649,-4.80789 -7.8522,0.37638 -9.43695,0.73599 -14.4872,3.28738 -8.08424,4.08414 -10.71591,7.68797 -11.14378,15.26037 -0.65577,11.60548 3.33653,15.92974 25.21528,27.3119 17.03414,8.86181 23.74134,13.30516 29.37862,19.46265 5.67985,6.204 8.42293,12.14399 9.04586,19.58839 1.17109,13.99496 -5.74848,26.29441 -18.37114,32.65449 -9.59566,4.83488 -27.24243,6.91514 -40.42506,4.76544 z m 104.67081,0.4606 c -18.28699,-2.88908 -31.90311,-15.73259 -36.27426,-34.21595 -1.53413,-6.48711 -1.32565,-21.36839 0.39488,-28.18615 4.73168,-18.7499 17.44185,-31.54033 35.28783,-35.51068 8.2587,-1.83739 22.35378,-1.28786 29.30109,1.14237 l 4.6977,1.64328 0.24667,7.90349 c 0.13567,4.3469 -0.0565,7.75196 -0.42706,7.56676 -12.26446,-6.12938 -18.54619,-7.53077 -27.15027,-6.05696 -7.26258,1.24403 -12.38608,3.80158 -17.14097,8.55649 -6.98915,6.98914 -10.61947,16.85115 -10.61947,28.84832 0,15.93798 5.85955,26.69658 17.93661,32.93304 3.01601,1.55743 5.61886,2.06233 12.08885,2.345 9.25894,0.40453 14.41636,-0.81096 21.43561,-5.05191 l 4.05709,-2.45125 0,7.23482 0,7.23481 -3.20297,1.6314 c -7.76723,3.95614 -21.27584,5.91117 -30.63133,4.43312 z m 258.2541,-1.26954 c -5.15767,-1.84059 -8.87758,-5.25411 -11.46268,-10.51851 l -2.41512,-4.91832 -0.25917,-33.52444 -0.25917,-33.52443 -8.06857,0 -8.06856,0 0,-6.83301 0,-6.83301 8.11422,0 8.11419,0 0,-11.46055 0,-11.46056 6.62236,-2.20546 c 3.64232,-1.213 7.10155,-2.20545 7.68717,-2.20545 0.80577,0 1.06472,3.31769 1.06472,13.64191 l 0,13.64191 11.74422,0.23763 11.74426,0.23764 0.24943,6.61947 0.24947,6.61948 -12.03302,0 -12.03299,0 0.25285,31.38912 c 0.23675,29.39117 0.3592,31.56493 1.92358,34.15122 0.91889,1.51916 2.89876,3.34486 4.39971,4.0571 3.41752,1.62172 11.17538,1.62937 14.00151,0.0138 1.17442,-0.67136 2.43976,-1.23428 2.81183,-1.25092 0.3721,-0.0167 0.56428,2.91539 0.42706,6.51564 l -0.24943,6.54591 -2.98946,1.07624 c -3.98802,1.43575 -17.53222,1.42796 -21.56841,-0.0124 z m -704.43849,-59.83503 0,-59.3454 -19.0043,-0.22987 L 0.49614,724.30144 0.24807,717.2549 0,710.20836 l 46.61894,0 46.618935,0 -0.248072,7.04654 -0.248072,7.04654 -19.004298,0.22987 -19.004303,0.22987 0,59.3454 0,59.3454 -8.11419,0 -8.1142,0 0,-59.3454 z m 491.97646,11.51435 0,-47.83104 7.68713,0 7.68713,0 0,10.03598 0,10.03598 2.49551,-5.27499 c 2.86715,-6.06056 7.89421,-11.32377 13.32825,-13.95435 2.86133,-1.38514 5.3271,-1.81672 10.23318,-1.79111 3.55493,0.0185 6.83326,0.26225 7.28514,0.54153 0.45188,0.27928 0.82162,3.98542 0.82162,8.23589 0,7.02347 -0.13629,7.67238 -1.49473,7.11703 -6.97342,-2.8509 -13.6806,-2.55995 -19.49163,0.84553 -4.35829,2.55412 -8.26951,7.87921 -10.83956,14.75796 -1.71672,4.59476 -1.84887,6.75367 -2.14291,35.0047 l -0.31338,30.10794 -7.62854,0 -7.62854,0 0,-47.83105 z m 55.51817,0 0,-47.83104 7.68713,0 7.68712,0 0,47.83104 0,47.83105 -7.68712,0 -7.68713,0 0,-47.83105 z m 1.19576,-74.65059 c -2.45798,-2.45797 -2.904,-3.50544 -2.904,-6.81952 0,-5.22744 3.1779,-8.96889 8.18868,-9.64083 8.29893,-1.11288 13.99591,6.8508 10.17988,14.2302 -1.83813,3.55455 -4.55226,5.13418 -8.82161,5.13418 -3.11328,0 -4.22484,-0.48594 -6.64295,-2.90403 z"
       id="path3845"
       inkscape:connector-curvature="0" />
  </g>
</svg>
